{
.appVersion = "3151";
.formatVersion = 3;
DisplayStrings = (
ABCDEFGHIJKLMNOPQRSTUVWXYZabcdefghijklmnopqrstuvwxyz0123456789
);
axes = (
{
name = Ribbon;
tag = ribb;
}
);
date = "2024-02-26 20:51:37 +0000";
familyName = "masking tape ribbon";
fontMaster = (
{
axesValues = (
0
);
customParameters = (
{
name = "Master Icon Glyph Name";
value = B;
}
);
id = m01;
metricValues = (
{
over = 16;
pos = 800;
},
{
over = 16;
pos = 700;
},
{
over = 16;
pos = 500;
},
{
over = -16;
},
{
over = -16;
pos = -200;
},
{
over = -16;
}
);
name = B;
},
{
axesValues = (
100
);
customParameters = (
{
name = "Master Icon Glyph Name";
value = B;
}
);
id = m002;
metricValues = (
{
over = 16;
pos = 800;
},
{
over = 16;
pos = 700;
},
{
over = 16;
pos = 500;
},
{
over = -16;
},
{
over = -16;
pos = -200;
},
{
over = -16;
}
);
name = "B +1";
},
{
axesValues = (
200
);
customParameters = (
{
name = "Master Icon Glyph Name";
value = B;
}
);
id = m003;
metricValues = (
{
over = 16;
pos = 800;
},
{
over = 16;
pos = 700;
},
{
over = 16;
pos = 500;
},
{
over = -16;
},
{
over = -16;
pos = -200;
},
{
over = -16;
}
);
name = "B +2";
},
{
axesValues = (
300
);
customParameters = (
{
name = "Master Icon Glyph Name";
value = B;
}
);
id = m004;
metricValues = (
{
over = 16;
pos = 800;
},
{
over = 16;
pos = 700;
},
{
over = 16;
pos = 500;
},
{
over = -16;
},
{
over = -16;
pos = -200;
},
{
over = -16;
}
);
name = "B +3";
},
{
axesValues = (
400
);
customParameters = (
{
name = "Master Icon Glyph Name";
value = B;
}
);
id = m005;
metricValues = (
{
over = 16;
pos = 800;
},
{
over = 16;
pos = 700;
},
{
over = 16;
pos = 500;
},
{
over = -16;
},
{
over = -16;
pos = -200;
},
{
over = -16;
}
);
name = "B +4";
},
{
axesValues = (
500
);
customParameters = (
{
name = "Master Icon Glyph Name";
value = B;
}
);
id = m006;
metricValues = (
{
over = 16;
pos = 800;
},
{
over = 16;
pos = 700;
},
{
over = 16;
pos = 500;
},
{
over = -16;
},
{
over = -16;
pos = -200;
},
{
over = -16;
}
);
name = "B +5";
},
{
axesValues = (
600

glyphs = (
{
glyphname = A;
lastChange = "2024-03-08 19:48:47 +0000";
layers = (
{
layerId = m01;
shapes = (
{
closed = 1;
nodes = (
(112,150,l),
(272,206,l),
(431,410,l),
(512,471,l),
(445,543,l),
(258,333,l),
(60,410,l),
(56,573,l),
(178,662,l),
(327,553,l),
(445,274,l),
(457,166,l),
(527,41,l),
(407,106,l),
(353,379,l),
(211,582,l),
(114,503,l),
(221,389,l),
(420,612,l),
(549,553,l),
(577,411,l),
(477,380,l),
(238,119,l),
(56,105,l),
(21,274,l)
);
}
);
width = 600;
},
{
layerId = m002;
shapes = (
{
closed = 1;
nodes = (
(135,74,l),
(251,110,l),
(240,208,l),
(364,323,l),
(491,557,l),
(269,400,l),
(71,463,l),
(67,597,l),
(189,669,l),
(338,580,l),
(517,261,l),
(529,173,l),
(599,70,l),
(479,124,l),
(425,347,l),
(237,595,l),
(144,528,l),
(213,457,l),
(431,628,l),
(560,580,l),
(554,460,l),
(299,204,l),
(249,36,l),
(67,24,l),
(32,162,l)
);
}
);
width = 600;
},
{
layerId = m003;
shapes = (
{
closed = 1;
nodes = (
(135,-107,l),
(100,34,l),
(171,119,l),
(268,168,l),
(319,278,l),
(269,383,l),
(71,443,l),
(67,571,l),
(189,640,l),
(338,555,l),
(517,250,l),
(529,166,l),
(599,68,l),
(479,119,l),
(425,332,l),
(237,569,l),
(144,505,l),
(213,437,l),
(316,437,l),
(380,332,l),
(346,148,l),
(171,-19,l),
(237,-130,l),
(188,-186,l),
(63,-176,l)
);
}
);
width = 600;
},
{
layerId = m004;
shapes = (
{
closed = 1;
nodes = (
(100,-89,l),
(100,34,l),
(150,116,l),
(246,168,l),
(277,268,l),
(223,383,l),
(134,476,l),
(260,571,l),
(382,640,l),
(531,555,l),
(571,157,l),
(577,36,l),
(479,-37,l),
(469,45,l),
(522,223,l),
(456,519,l),
(352,540,l),
(249,470,l),
(292,421,l),
(352,327,l),
(346,148,l),
(192,38,l),
(209,-53,l),
(330,-76,l),
(274,-166,l)
);
}
);
width = 600;
},
{
layerId = m005;
shapes = (
{
closed = 1;
nodes = (
(129,-81,l),
(82,31,l),
(132,118,l),
(195,189,l),
(109,318,l),
(132,485,l),
(236,637,l),
(370,664,l),
(501,624,l),
(596,362,l),
(588,181,l),
(526,42,l),
(465,-106,l),
(415,10,l),
(511,189,l),
(511,395,l),
(445,564,l),
(305,584,l),
(222,453,l),
(195,318,l),
(286,173,l),
(189,56,l),
(197,-36,l),
(328,-91,l),
(256,-180,l)
);
}
);
width = 600;
},
{
layerId = m006;
shapes = (
{
closed = 1;
nodes = (
(307,283,l),
(270,83,l),
(212,27,l),
(93,66,l),
(35,245,l),
(48,394,l),
(132,592,l),
(272,663,l),
(451,639,l),
(596,370,l),
(583,134,l),
(498,51,l),
(466,-116,l),
(392,-27,l),
(501,182,l),
(511,404,l),
(382,571,l),
(224,580,l),
(104,359,l),
(132,169,l),
(197,146,l),
(224,226,l),
(241,315,l),
(289,397,l),
(347,382,l)
);
}
);
width = 600;
},
{
layerId = m007;
shapes = (
{
closed = 1;
nodes = (
(255,315,l),
(284,207,l),
(260,10,l),
(140,-19,l),
(48,83,l),
(33,390,l),
(117,588,l),
(257,658,l),
(436,634,l),
(581,366,l),
(569,200,l),
(517,82,l),
(483,-61,l),
(415,21,l),
(517,401,l),
(357,568,l),
(214,568,l),
(101,390,l),
(117,91,l),
(210,67,l),
(210,230,l),
(159,328,l),
(238,390,l),
(386,401,l),
(410,335,l)
);
}
);
width = 600;
},
{
layerId = m008;
shapes = (
{
closed = 1;
nodes = (
(231,348,l),
(239,221,l),
(257,62,l),
(140,-46,l),
(83,70,l),
(71,269,l),
(146,559,l),
(257,700,l),
(401,636,l),
(531,379,l),
(531,215,l),
(517,90,l),
(483,-61,l),
(415,26,l),
(462,325,l),
(382,560,l),
(245,575,l),
(155,393,l),
(149,57,l),
(190,105,l),
(168,238,l),
(175,337,l),
(190,408,l),
(418,426,l),
(475,358,l)
);
}
);
width = 600;
}
);
unicode = 65;
},
{
glyphname = B;
lastChange = "2024-03-08 00:20:36 +0000";
layers = (
{
layerId = m01;
shapes = (
{
closed = 1;
nodes = (
(290,331,l),
(453,449,l),
(473,498,l),
(448,510,l),
(265,344,l),
(80,423,l),
(56,548,l),
(245,658,l),
(328,385,l),
(365,262,l),
(555,27,l),
(482,27,l),
(330,267,l),
(187,587,l),
(130,517,l),
(247,392,l),
(448,595,l),
(529,491,l),
(507,361,l),
(161,280,l),
(20,79,l),
(80,304,l)
);
}
);
width = 600;
},
{
layerId = m002;
shapes = (
{
closed = 1;
nodes = (
(290,309,l),
(453,422,l),
(473,469,l),
(448,480,l),
(265,321,l),
(80,397,l),
(56,517,l),
(245,623,l),
(360,640,l),
(424,650,l),
(677,456,l),
(604,456,l),
(424,599,l),
(187,555,l),
(130,488,l),
(247,367,l),
(448,562,l),
(529,463,l),
(507,338,l),
(161,260,l),
(20,67,l),
(80,282,l)
);
}
);
width = 600;
},
{
layerId = m003;
shapes = (
{
closed = 1;
nodes = (
(290,139,l),
(453,248,l),
(473,293,l),
(448,304,l),
(265,151,l),
(80,414,l),
(56,529,l),
(245,631,l),
(356,648,l),
(424,658,l),
(677,471,l),
(604,471,l),
(424,608,l),
(187,566,l),
(130,501,l),
(247,268,l),
(448,382,l),
(529,287,l),
(507,167,l),
(256,28,l),
(245,-71,l),
(195,39,l)
);
}
);
width = 600;
},
{
layerId = m004;
shapes = (
{
closed = 1;
nodes = (
(251,89,l),
(453,219,l),
(402,281,l),
(269,226,l),
(130,163,l),
(80,420,l),
(56,537,l),
(245,641,l),
(353,657,l),
(424,668,l),
(584,478,l),
(531,437,l),
(424,617,l),
(187,574,l),
(130,509,l),
(173,278,l),
(316,412,l),
(484,362,l),
(584,168,l),
(352,89,l),
(343,-61,l),
(251,-26,l)
);
}
);
width = 600;
},
{
layerId = m005;
shapes = (
{
closed = 1;
nodes = (
(509,163,l),
(371,-6,l),
(320,52,l),
(187,1,l),
(109,216,l),
(59,456,l),
(35,565,l),
(224,662,l),
(404,573,l),
(474,539,l),
(439,337,l),
(312,376,l),
(423,483,l),
(166,600,l),
(109,539,l),
(152,323,l),
(234,175,l),
(402,128,l),
(465,227,l),
(542,231,l),
(572,295,l),
(586,175,l)
);
}
);
width = 600;
},
{
layerId = m006;
shapes = (
{
closed = 1;
nodes = (
(568,215,l),
(547,88,l),
(320,67,l),
(187,17,l),
(109,229,l),
(59,467,l),
(35,575,l),
(224,671,l),
(397,587,l),
(474,549,l),
(439,349,l),
(312,388,l),
(423,494,l),
(166,610,l),
(109,549,l),
(152,336,l),
(234,108,l),
(402,143,l),
(515,148,l),
(296,315,l),
(374,324,l),
(474,297,l)
);
}
);
width = 600;
},
{
layerId = m007;
shapes = (
{
closed = 1;
nodes = (
(568,301,l),
(533,180,l),
(495,84,l),
(187,17,l),
(36,266,l),
(59,469,l),
(35,578,l),
(224,675,l),
(400,589,l),
(474,552,l),
(263,361,l),
(202,361,l),
(334,515,l),
(166,613,l),
(109,552,l),
(75,289,l),
(234,109,l),
(444,195,l),
(412,266,l),
(102,312,l),
(187,344,l),
(382,353,l)
);
}
);
width = 600;
},
{
layerId = m008;
shapes = (
{
closed = 1;
nodes = (
(495,333,l),
(533,186,l),
(461,56,l),
(187,17,l),
(36,276,l),
(59,487,l),
(35,600,l),
(224,700,l),
(420,623,l),
(444,487,l),
(292,338,l),
(234,365,l),
(371,550,l),
(203,622,l),
(119,524,l),
(94,298,l),
(249,89,l),
(444,151,l),
(427,274,l),
(59,319,l),
(144,382,l),
(382,366,l)
);
}
);
width = 600;
}
);
unicode = 66;
},
{
glyphname = C;
lastChange = "2024-03-08 19:46:59 +0000";
layers = (
{
layerId = m01;
shapes = (
{
closed = 1;
nodes = (
(199,214,l),
(273,372,l),
(463,486,l),
(500,542,l),
(410,524,l),
(190,404,l),
(60,451,l),
(59,586,l),
(153,655,l),
(311,646,l),
(452,263,l),
(531,222,l),
(479,56,l),
(428,172,l),
(314,562,l),
(162,613,l),
(100,500,l),
(212,481,l),
(372,565,l),
(452,620,l),
(561,562,l),
(537,434,l),
(311,284,l),
(179,107,l),
(49,97,l)
);
}
);
width = 600;
},
{
layerId = m002;
shapes = (
{
closed = 1;
nodes = (
(184,158,l),
(277,275,l),
(479,416,l),
(500,492,l),
(430,492,l),
(186,281,l),
(43,408,l),
(59,532,l),
(137,635,l),
(267,635,l),
(392,444,l),
(471,444,l),
(426,402,l),
(347,415,l),
(269,553,l),
(146,569,l),
(99,461,l),
(217,377,l),
(372,513,l),
(486,563,l),
(561,510,l),
(539,384,l),
(282,180,l),
(201,61,l),
(49,84,l)
);
}
);
width = 600;
},
{
layerId = m003;
shapes = (
{
closed = 1;
nodes = (
(199,121,l),
(292,249,l),
(476,342,l),
(497,405,l),
(427,405,l),
(186,255,l),
(60,394,l),
(59,528,l),
(135,670,l),
(304,654,l),
(405,585,l),
(484,585,l),
(439,539,l),
(391,540,l),
(301,599,l),
(177,599,l),
(125,428,l),
(243,371,l),
(369,448,l),
(483,502,l),
(558,444,l),
(536,319,l),
(282,157,l),
(201,27,l),
(49,41,l)
);
}
);
width = 600;
},
{
layerId = m004;
shapes = (
{
closed = 1;
nodes = (
(326,54,l),
(396,167,l),
(418,261,l),
(403,314,l),
(296,323,l),
(173,298,l),
(55,397,l),
(54,482,l),
(111,675,l),
(311,671,l),
(419,586,l),
(484,545,l),
(470,462,l),
(377,519,l),
(314,586,l),
(173,571,l),
(140,461,l),
(215,410,l),
(286,388,l),
(393,406,l),
(500,354,l),
(500,285,l),
(458,89,l),
(377,-27,l),
(193,-36,l)
);
}
);
width = 600;
},
{
layerId = m005;
shapes = (
{
closed = 1;
nodes = (
(343,54,l),
(391,170,l),
(375,250,l),
(317,278,l),
(225,264,l),
(115,278,l),
(59,391,l),
(59,516,l),
(115,700,l),
(289,686,l),
(418,579,l),
(479,488,l),
(439,426,l),
(391,488,l),
(314,599,l),
(164,615,l),
(121,454,l),
(150,372,l),
(230,350,l),
(322,371,l),
(441,330,l),
(461,259,l),
(474,108,l),
(425,37,l),
(377,-89,l)
);
}
);
width = 600;
},
{
layerId = m006;
shapes = (
{
closed = 1;
nodes = (
(313,3,l),
(291,64,l),
(275,135,l),
(245,205,l),
(182,192,l),
(51,255,l),
(30,369,l),
(68,594,l),
(175,700,l),
(311,654,l),
(439,578,l),
(474,476,l),
(439,420,l),
(405,492,l),
(314,588,l),
(167,609,l),
(101,461,l),
(156,380,l),
(157,316,l),
(268,276,l),
(337,252,l),
(357,187,l),
(370,94,l),
(460,75,l),
(529,0,l)
);
}
);
width = 600;
},
{
layerId = m007;
shapes = (
{
closed = 1;
nodes = (
(428,-2,l),
(275,4,l),
(225,46,l),
(168,105,l),
(121,133,l),
(81,295,l),
(72,439,l),
(114,577,l),
(225,700,l),
(392,700,l),
(465,585,l),
(516,439,l),
(509,382,l),
(441,422,l),
(400,590,l),
(276,650,l),
(171,550,l),
(139,409,l),
(145,333,l),
(175,267,l),
(218,180,l),
(258,122,l),
(416,133,l),
(478,195,l),
(545,147,l)
);
}
);
width = 600;
},
{
layerId = m008;
shapes = (
{
closed = 1;
nodes = (
(473,85,l),
(348,-16,l),
(244,3,l),
(133,75,l),
(87,152,l),
(61,287,l),
(72,409,l),
(110,583,l),
(230,700,l),
(414,674,l),
(497,542,l),
(497,451,l),
(417,406,l),
(441,498,l),
(393,556,l),
(281,605,l),
(188,523,l),
(143,378,l),
(153,281,l),
(174,214,l),
(219,130,l),
(299,86,l),
(407,152,l),
(437,193,l),
(531,243,l)
);
}
);
width = 600;
}
);
unicode = 67;
},
{
glyphname = D;
lastChange = "2024-02-29 03:25:25 +0000";
layers = (
{
layerId = m01;
shapes = (
{
closed = 1;
nodes = (
(125,134,l),
(307,335,l),
(453,467,l),
(500,509,l),
(430,544,l),
(212,354,l),
(30,382,l),
(30,520,l),
(116,608,l),
(220,644,l),
(456,260,l),
(524,7,l),
(423,114,l),
(435,198,l),
(226,562,l),
(122,567,l),
(90,457,l),
(208,417,l),
(372,566,l),
(453,605,l),
(539,572,l),
(525,427,l),
(307,255,l),
(93,22,l),
(48,188,l)
);
}
);
width = 600;
},
{
layerId = m002;
shapes = (
{
closed = 1;
nodes = (
(142,127,l),
(332,300,l),
(473,405,l),
(471,461,l),
(308,406,l),
(125,363,l),
(125,543,l),
(144,614,l),
(227,664,l),
(412,594,l),
(500,153,l),
(482,26,l),
(359,-20,l),
(453,126,l),
(381,543,l),
(249,614,l),
(190,543,l),
(176,449,l),
(287,449,l),
(423,495,l),
(490,518,l),
(526,405,l),
(286,196,l),
(93,28,l),
(48,179,l)
);
}
);
width = 600;
},
{
layerId = m003;
shapes = (
{
closed = 1;
nodes = (
(176,245,l),
(286,285,l),
(399,379,l),
(362,426,l),
(216,401,l),
(111,401,l),
(124,574,l),
(179,674,l),
(351,638,l),
(475,450,l),
(464,115,l),
(393,-5,l),
(314,-20,l),
(399,103,l),
(425,418,l),
(323,591,l),
(216,626,l),
(161,480,l),
(244,458,l),
(386,484,l),
(429,472,l),
(445,380,l),
(286,223,l),
(179,189,l),
(56,245,l)
);
}
);
width = 600;
},
{
layerId = m004;
shapes = (
{
closed = 1;
nodes = (
(113,138,l),
(259,255,l),
(351,350,l),
(314,396,l),
(216,417,l),
(158,454,l),
(161,616,l),
(252,683,l),
(351,683,l),
(549,439,l),
(453,61,l),
(393,-6,l),
(314,-20,l),
(384,56,l),
(477,415,l),
(348,632,l),
(264,606,l),
(210,564,l),
(228,475,l),
(338,453,l),
(381,441,l),
(397,351,l),
(286,181,l),
(176,112,l),
(175,6,l)
);
}
);
width = 600;
},
{
layerId = m005;
shapes = (
{
closed = 1;
nodes = (
(98,87,l),
(158,181,l),
(230,355,l),
(191,400,l),
(116,431,l),
(98,519,l),
(161,608,l),
(344,685,l),
(480,608,l),
(549,326,l),
(392,52,l),
(329,-9,l),
(234,-1,l),
(306,52,l),
(485,360,l),
(440,580,l),
(356,608,l),
(210,557,l),
(176,502,l),
(216,445,l),
(260,425,l),
(278,318,l),
(243,194,l),
(170,76,l),
(175,3,l)
);
}
);
width = 600;
},
{
layerId = m006;
shapes = (
{
closed = 1;
nodes = (
(98,132,l),
(192,218,l),
(143,360,l),
(104,429,l),
(116,543,l),
(139,668,l),
(355,700,l),
(523,524,l),
(523,360,l),
(480,154,l),
(392,52,l),
(329,-9,l),
(234,-1,l),
(306,52,l),
(418,202,l),
(463,334,l),
(480,500,l),
(346,652,l),
(176,640,l),
(176,543,l),
(173,435,l),
(198,369,l),
(243,238,l),
(182,121,l),
(211,30,l)
);
}
);
width = 600;
},
{
layerId = m007;
shapes = (
{
closed = 1;
nodes = (
(119,95,l),
(124,202,l),
(104,381,l),
(117,512,l),
(104,665,l),
(129,708,l),
(355,700,l),
(546,524,l),
(571,360,l),
(538,183,l),
(480,71,l),
(309,-8,l),
(219,0,l),
(403,95,l),
(463,202,l),
(493,334,l),
(485,485,l),
(346,652,l),
(165,655,l),
(178,559,l),
(189,471,l),
(151,402,l),
(171,268,l),
(192,106,l),
(192,23,l)
);
}
);
width = 600;
},
{
layerId = m008;
shapes = (
{
closed = 1;
nodes = (
(123,9,l),
(108,203,l),
(63,391,l),
(63,506,l),
(80,700,l),
(159,708,l),
(355,700,l),
(571,524,l),
(588,360,l),
(571,183,l),
(453,71,l),
(288,-12,l),
(162,54,l),
(430,141,l),
(481,202,l),
(520,359,l),
(473,510,l),
(321,643,l),
(162,643,l),
(144,540,l),
(159,452,l),
(151,375,l),
(171,268,l),
(192,106,l),
(203,0,l)
);
}
);
width = 600;
}
);
unicode = 68;
},
{
glyphname = E;
lastChange = "2024-02-29 04:01:33 +0000";
layers = (
{
layerId = m01;
shapes = (
{
closed = 1;
nodes = (
(137,133,l),
(334,313,l),
(447,433,l),
(511,504,l),
(430,544,l),
(212,354,l),
(16,371,l),
(16,558,l),
(116,664,l),
(279,664,l),
(376,469,l),
(481,260,l),
(506,113,l),
(524,7,l),
(423,114,l),
(423,192,l),
(256,613,l),
(125,602,l),
(86,500,l),
(172,450,l),
(372,566,l),
(512,633,l),
(573,520,l),
(556,416,l),
(318,203,l),
(74,22,l),
(61,114,l),
(47,220,l)
);
}
);
width = 600;
},
{
layerId = m002;
shapes = (
{
closed = 1;
nodes = (
(137,133,l),
(334,313,l),
(447,433,l),
(511,504,l),
(430,544,l),
(212,354,l),
(16,371,l),
(16,558,l),
(82,700,l),
(245,700,l),
(346,635,l),
(497,537,l),
(528,357,l),
(540,284,l),
(439,391,l),
(439,469,l),
(222,649,l),
(91,638,l),
(86,500,l),
(172,450,l),
(372,566,l),
(512,633,l),
(573,520,l),
(556,416,l),
(318,203,l),
(74,22,l),
(61,114,l),
(47,220,l)
);
}
);
width = 600;
},
{
layerId = m003;
shapes = (
{
closed = 1;
nodes = (
(146,155,l),
(239,255,l),
(392,352,l),
(415,446,l),
(340,473,l),
(212,371,l),
(16,371,l),
(16,558,l),
(76,643,l),
(245,700,l),
(330,671,l),
(460,628,l),
(527,586,l),
(621,527,l),
(526,527,l),
(443,576,l),
(222,649,l),
(93,610,l),
(76,433,l),
(190,421,l),
(302,517,l),
(415,518,l),
(472,416,l),
(394,308,l),
(277,220,l),
(218,164,l),
(230,101,l),
(242,36,l)
);
}
);
width = 600;
},
{
layerId = m004;
shapes = (
{
closed = 1;
nodes = (
(312,43,l),
(160,163,l),
(222,292,l),
(319,352,l),
(319,449,l),
(159,352,l),
(38,371,l),
(16,558,l),
(76,643,l),
(245,700,l),
(359,662,l),
(460,628,l),
(522,594,l),
(588,558,l),
(531,536,l),
(443,576,l),
(222,649,l),
(65,558,l),
(80,418,l),
(153,395,l),
(269,500,l),
(366,500,l),
(385,341,l),
(285,274,l),
(240,187,l),
(306,107,l),
(372,77,l),
(447,43,l)
);
}
);
width = 600;
},
{
layerId = m005;
shapes = (
{
closed = 1;
nodes = (
(381,12,l),
(132,49,l),
(101,110,l),
(275,246,l),
(302,325,l),
(174,288,l),
(38,408,l),
(21,539,l),
(76,595,l),
(245,700,l),
(369,669,l),
(460,628,l),
(533,588,l),
(588,558,l),
(531,536,l),
(443,576,l),
(222,649,l),
(91,522,l),
(91,439,l),
(187,341,l),
(281,377,l),
(369,330,l),
(357,264,l),
(187,122,l),
(212,76,l),
(375,76,l),
(444,45,l),
(516,12,l)
);
}
);
width = 600;
},
{
layerId = m006;
shapes = (
{
closed = 1;
nodes = (
(381,12,l),
(132,49,l),
(101,110,l),
(76,226,l),
(306,285,l),
(340,352,l),
(104,337,l),
(21,485,l),
(76,621,l),
(141,700,l),
(302,700,l),
(471,645,l),
(532,582,l),
(588,525,l),
(480,541,l),
(393,610,l),
(187,637,l),
(101,549,l),
(96,444,l),
(170,410,l),
(385,410,l),
(420,329,l),
(360,253,l),
(152,186,l),
(212,76,l),
(375,76,l),
(409,61,l),
(516,12,l)
);
}
);
width = 600;
},
{
layerId = m007;
shapes = (
{
closed = 1;
nodes = (
(381,12,l),
(132,49,l),
(101,110,l),
(53,290,l),
(168,293,l),
(400,321,l),
(104,337,l),
(21,452,l),
(53,606,l),
(110,700,l),
(256,683,l),
(400,667,l),
(516,605,l),
(553,552,l),
(451,559,l),
(353,622,l),
(152,610,l),
(87,485,l),
(159,385,l),
(408,385,l),
(468,373,l),
(480,307,l),
(319,226,l),
(119,247,l),
(212,76,l),
(375,76,l),
(434,29,l),
(516,12,l)
);
}
);
width = 600;
},
{
layerId = m008;
shapes = (
{
closed = 1;
nodes = (
(441,0,l),
(156,18,l),
(21,174,l),
(88,368,l),
(391,320,l),
(420,350,l),
(116,309,l),
(21,452,l),
(53,606,l),
(110,700,l),
(311,700,l),
(428,675,l),
(520,565,l),
(442,571,l),
(366,610,l),
(293,643,l),
(150,627,l),
(88,485,l),
(155,383,l),
(395,409,l),
(487,386,l),
(424,251,l),
(304,280,l),
(110,269,l),
(140,147,l),
(265,77,l),
(406,87,l),
(533,132,l)
);
}
);
width = 600;
}
);
unicode = 69;
},
{
glyphname = F;
lastChange = "2024-02-29 04:22:45 +0000";
layers = (
{
layerId = m01;
shapes = (
{
closed = 1;
nodes = (
(148,302,l),
(336,374,l),
(481,456,l),
(518,548,l),
(403,548,l),
(212,373,l),
(28,425,l),
(16,588,l),
(116,700,l),
(322,667,l),
(376,494,l),
(434,292,l),
(556,163,l),
(524,7,l),
(467,163,l),
(372,213,l),
(285,607,l),
(163,632,l),
(83,500,l),
(198,447,l),
(362,598,l),
(487,619,l),
(594,575,l),
(541,409,l),
(127,213,l),
(154,33,l),
(69,61,l),
(47,232,l)
);
}
);
width = 600;
},
{
layerId = m002;
shapes = (
{
closed = 1;
nodes = (
(50,215,l),
(125,251,l),
(467,455,l),
(481,500,l),
(403,548,l),
(151,357,l),
(28,425,l),
(16,588,l),
(116,700,l),
(320,679,l),
(467,538,l),
(487,357,l),
(556,316,l),
(567,160,l),
(462,232,l),
(401,454,l),
(285,635,l),
(150,635,l),
(70,503,l),
(147,418,l),
(362,598,l),
(556,557,l),
(581,456,l),
(222,213,l),
(127,109,l),
(154,33,l),
(69,61,l),
(50,155,l)
);
}
);
width = 600;
},
{
layerId = m003;
shapes = (
{
closed = 1;
nodes = (
(50,215,l),
(125,251,l),
(338,384,l),
(352,429,l),
(274,477,l),
(151,357,l),
(16,418,l),
(24,578,l),
(58,679,l),
(285,700,l),
(427,594,l),
(531,523,l),
(554,448,l),
(565,292,l),
(477,453,l),
(333,536,l),
(285,635,l),
(116,635,l),
(98,522,l),
(147,418,l),
(233,527,l),
(427,486,l),
(452,385,l),
(222,213,l),
(127,109,l),
(154,33,l),
(69,61,l),
(50,155,l)
);
}
);
width = 600;
},
{
layerId = m004;
shapes = (
{
closed = 1;
nodes = (
(50,215,l),
(79,251,l),
(167,281,l),
(252,344,l),
(239,450,l),
(151,450,l),
(16,418,l),
(24,578,l),
(58,679,l),
(285,700,l),
(427,710,l),
(531,639,l),
(554,564,l),
(565,408,l),
(477,569,l),
(384,647,l),
(285,635,l),
(116,635,l),
(98,522,l),
(233,522,l),
(304,478,l),
(359,311,l),
(249,242,l),
(151,213,l),
(151,109,l),
(198,0,l),
(69,61,l),
(50,155,l)
);
}
);
width = 600;
},
{
layerId = m005;
shapes = (
{
closed = 1;
nodes = (
(21,146,l),
(50,182,l),
(82,264,l),
(274,369,l),
(235,385,l),
(160,380,l),
(16,364,l),
(24,524,l),
(40,585,l),
(110,683,l),
(252,709,l),
(443,691,l),
(532,630,l),
(547,533,l),
(389,621,l),
(209,630,l),
(110,618,l),
(98,541,l),
(98,468,l),
(267,468,l),
(381,455,l),
(395,375,l),
(199,258,l),
(133,186,l),
(82,109,l),
(133,40,l),
(50,0,l),
(21,86,l)
);
}
);
width = 600;
},
{
layerId = m006;
shapes = (
{
closed = 1;
nodes = (
(21,146,l),
(12,192,l),
(30,322,l),
(70,421,l),
(267,377,l),
(244,413,l),
(70,421,l),
(24,524,l),
(40,585,l),
(110,683,l),
(252,709,l),
(443,691,l),
(532,630,l),
(547,533,l),
(389,621,l),
(209,630,l),
(110,618,l),
(98,541,l),
(152,455,l),
(267,468,l),
(381,479,l),
(358,356,l),
(147,316,l),
(95,196,l),
(82,109,l),
(180,19,l),
(95,0,l),
(21,86,l)
);
}
);
width = 600;
},
{
layerId = m007;
shapes = (
{
closed = 1;
nodes = (
(40,110,l),
(12,192,l),
(30,322,l),
(70,421,l),
(351,392,l),
(328,428,l),
(70,421,l),
(24,524,l),
(40,585,l),
(110,683,l),
(252,709,l),
(370,712,l),
(459,651,l),
(474,554,l),
(316,642,l),
(209,630,l),
(110,618,l),
(98,541,l),
(131,483,l),
(351,483,l),
(459,400,l),
(459,320,l),
(128,331,l),
(87,229,l),
(117,142,l),
(126,-9,l),
(95,-111,l),
(21,24,l)
);
}
);
width = 600;
},
{
layerId = m008;
shapes = (
{
closed = 1;
nodes = (
(54,120,l),
(51,209,l),
(31,379,l),
(95,458,l),
(329,421,l),
(315,442,l),
(49,420,l),
(13,511,l),
(40,642,l),
(110,683,l),
(252,709,l),
(370,712,l),
(444,681,l),
(459,584,l),
(316,642,l),
(209,654,l),
(110,618,l),
(81,541,l),
(131,483,l),
(340,500,l),
(444,412,l),
(395,353,l),
(110,379,l),
(126,246,l),
(120,151,l),
(134,44,l),
(134,-42,l),
(63,-2,l)
);
}
);
width = 600;
}
);
unicode = 70;
},
{
glyphname = G;
lastChange = "2024-03-01 20:08:16 +0000";
layers = (
{
layerId = m01;
shapes = (
{
closed = 1;
nodes = (
(225,305,l),
(416,666,l),
(580,565,l),
(507,382,l),
(413,364,l),
(267,424,l),
(202,521,l),
(187,609,l),
(128,633,l),
(128,464,l),
(202,411,l),
(422,321,l),
(542,231,l),
(588,61,l),
(349,286,l),
(98,385,l),
(40,551,l),
(71,666,l),
(233,676,l),
(289,509,l),
(422,431,l),
(512,512,l),
(453,568,l),
(284,266,l),
(151,220,l),
(73,12,l),
(26,109,l),
(87,248,l)
);
}
);
width = 600;
},
{
layerId = m002;
shapes = (
{
closed = 1;
nodes = (
(225,305,l),
(391,681,l),
(555,580,l),
(482,397,l),
(388,379,l),
(297,343,l),
(232,381,l),
(217,469,l),
(158,493,l),
(158,324,l),
(232,271,l),
(378,194,l),
(494,169,l),
(572,62,l),
(349,142,l),
(128,245,l),
(70,411,l),
(101,526,l),
(263,536,l),
(319,403,l),
(397,446,l),
(487,527,l),
(428,583,l),
(284,266,l),
(151,220,l),
(73,12,l),
(26,109,l),
(87,248,l)
);
}
);
width = 600;
},
{
layerId = m003;
shapes = (
{
closed = 1;
nodes = (
(274,471,l),
(225,592,l),
(428,615,l),
(521,446,l),
(388,379,l),
(297,343,l),
(213,366,l),
(128,403,l),
(100,318,l),
(170,255,l),
(247,158,l),
(345,135,l),
(452,193,l),
(572,154,l),
(349,62,l),
(172,118,l),
(23,323,l),
(54,438,l),
(216,448,l),
(319,403,l),
(428,463,l),
(412,554,l),
(319,536,l),
(327,458,l),
(250,265,l),
(172,57,l),
(125,154,l),
(186,293,l)
);
}
);
width = 600;
},
{
layerId = m004;
shapes = (
{
closed = 1;
nodes = (
(274,471,l),
(265,538,l),
(468,561,l),
(521,446,l),
(388,408,l),
(286,440,l),
(169,418,l),
(84,455,l),
(100,257,l),
(170,194,l),
(247,97,l),
(345,74,l),
(452,132,l),
(572,93,l),
(349,1,l),
(172,57,l),
(23,262,l),
(10,490,l),
(172,500,l),
(280,517,l),
(428,463,l),
(452,500,l),
(359,482,l),
(327,458,l),
(250,265,l),
(225,180,l),
(112,180,l),
(186,293,l)
);
}
);
width = 600;
},
{
layerId = m005;
shapes = (
{
closed = 1;
nodes = (
(274,471,l),
(265,538,l),
(468,561,l),
(521,446,l),
(446,392,l),
(233,561,l),
(126,523,l),
(84,323,l),
(101,227,l),
(186,119,l),
(363,96,l),
(410,156,l),
(348,285,l),
(452,233,l),
(483,133,l),
(385,43,l),
(126,56,l),
(21,308,l),
(83,584,l),
(225,623,l),
(446,449,l),
(452,500,l),
(359,482,l),
(327,458,l),
(290,323,l),
(348,180,l),
(274,180,l),
(225,293,l)
);
}
);
width = 600;
},
{
layerId = m006;
shapes = (
{
closed = 1;
nodes = (
(281,426,l),
(285,509,l),
(424,561,l),
(434,597,l),
(367,577,l),
(188,561,l),
(94,399,l),
(140,195,l),
(252,98,l),
(372,60,l),
(465,132,l),
(368,190,l),
(294,285,l),
(394,252,l),
(526,202,l),
(526,43,l),
(327,-12,l),
(75,113,l),
(36,469,l),
(162,649,l),
(420,664,l),
(529,616,l),
(505,512,l),
(473,488,l),
(351,469,l),
(430,373,l),
(435,290,l),
(348,378,l)
);
}
);
width = 600;
},
{
layerId = m007;
shapes = (
{
closed = 1;
nodes = (
(376,452,l),
(430,500,l),
(463,568,l),
(370,603,l),
(226,577,l),
(101,483,l),
(101,259,l),
(208,100,l),
(376,53,l),
(489,113,l),
(489,223,l),
(396,252,l),
(208,252,l),
(327,303,l),
(507,290,l),
(577,189,l),
(509,0,l),
(187,11,l),
(36,161,l),
(36,514,l),
(193,629,l),
(382,682,l),
(517,624,l),
(552,557,l),
(532,492,l),
(499,424,l),
(418,337,l),
(396,398,l)
);
}
);
width = 600;
},
{
layerId = m008;
shapes = (
{
closed = 1;
nodes = (
(482,431,l),
(494,582,l),
(382,646,l),
(237,625,l),
(94,490,l),
(108,396,l),
(101,168,l),
(235,55,l),
(392,88,l),
(488,133,l),
(468,248,l),
(423,269,l),
(227,230,l),
(262,333,l),
(474,359,l),
(574,246,l),
(548,47,l),
(227,-10,l),
(57,77,l),
(15,269,l),
(34,500,l),
(94,633,l),
(227,700,l),
(423,722,l),
(514,646,l),
(574,600,l),
(574,521,l),
(574,456,l)
);
}
);
width = 600;
}
);
unicode = 71;
},
{
glyphname = H;
lastChange = "2024-03-01 00:59:34 +0000";
layers = (
{
layerId = m01;
shapes = (
{
closed = 1;
nodes = (
(260,210,l),
(299,379,l),
(276,554,l),
(398,700,l),
(565,623,l),
(555,431,l),
(509,356,l),
(235,356,l),
(179,401,l),
(152,457,l),
(93,457,l),
(111,353,l),
(235,308,l),
(454,327,l),
(565,144,l),
(535,51,l),
(424,256,l),
(224,242,l),
(48,333,l),
(36,499,l),
(156,523,l),
(229,422,l),
(461,404,l),
(509,530,l),
(424,623,l),
(349,526,l),
(370,353,l),
(319,165,l),
(186,119,l),
(143,-10,l),
(97,51,l),
(122,147,l)
);
}
);
width = 600;
},
{
layerId = m002;
shapes = (
{
closed = 1;
nodes = (
(66,210,l),
(93,333,l),
(191,628,l),
(313,774,l),
(480,697,l),
(470,505,l),
(424,430,l),
(235,356,l),
(179,401,l),
(152,457,l),
(93,457,l),
(111,353,l),
(235,308,l),
(454,327,l),
(565,144,l),
(535,51,l),
(424,256,l),
(224,242,l),
(48,333,l),
(36,499,l),
(156,523,l),
(229,422,l),
(376,478,l),
(424,604,l),
(339,697,l),
(264,600,l),
(148,370,l),
(148,201,l),
(127,128,l),
(143,-10,l),
(74,26,l),
(52,147,l)
);
}
);
width = 600;
},
{
layerId = m003;
shapes = (
{
closed = 1;
nodes = (
(66,210,l),
(93,333,l),
(30,651,l),
(152,797,l),
(319,720,l),
(498,609,l),
(452,534,l),
(380,374,l),
(324,419,l),
(297,475,l),
(238,475,l),
(196,371,l),
(235,308,l),
(513,268,l),
(565,92,l),
(472,31,l),
(472,217,l),
(224,242,l),
(127,333,l),
(181,517,l),
(301,541,l),
(374,440,l),
(404,582,l),
(263,627,l),
(178,720,l),
(103,623,l),
(148,370,l),
(148,201,l),
(127,128,l),
(143,-10,l),
(74,26,l),
(52,147,l)
);
}
);
width = 600;
},
{
layerId = m004;
shapes = (
{
closed = 1;
nodes = (
(81,162,l),
(108,285,l),
(8,586,l),
(130,732,l),
(224,635,l),
(414,700,l),
(452,625,l),
(492,456,l),
(364,426,l),
(337,482,l),
(278,482,l),
(326,341,l),
(325,271,l),
(483,207,l),
(535,31,l),
(442,-30,l),
(442,156,l),
(314,205,l),
(257,303,l),
(221,524,l),
(341,548,l),
(430,514,l),
(387,618,l),
(179,582,l),
(130,635,l),
(81,558,l),
(163,322,l),
(163,153,l),
(142,80,l),
(158,-58,l),
(89,-22,l),
(67,99,l)
);
}
);
width = 600;
},
{
layerId = m005;
shapes = (
{
closed = 1;
nodes = (
(81,162,l),
(60,285,l),
(8,586,l),
(103,700,l),
(176,565,l),
(264,669,l),
(413,669,l),
(528,613,l),
(552,479,l),
(474,466,l),
(429,397,l),
(429,341,l),
(459,242,l),
(494,148,l),
(535,31,l),
(442,-30,l),
(415,131,l),
(390,180,l),
(360,303,l),
(360,403,l),
(459,535,l),
(397,604,l),
(283,587,l),
(136,482,l),
(90,613,l),
(76,513,l),
(122,311,l),
(163,153,l),
(142,80,l),
(158,-58,l),
(89,-22,l),
(67,99,l)
);
}
);
width = 600;
},
{
layerId = m006;
shapes = (
{
closed = 1;
nodes = (
(16,162,l),
(25,285,l),
(8,643,l),
(103,700,l),
(176,565,l),
(229,396,l),
(362,417,l),
(442,643,l),
(552,613,l),
(552,500,l),
(516,397,l),
(516,341,l),
(546,242,l),
(581,148,l),
(535,31,l),
(442,-30,l),
(502,131,l),
(477,180,l),
(447,303,l),
(447,403,l),
(477,477,l),
(306,331,l),
(163,314,l),
(136,482,l),
(90,613,l),
(76,513,l),
(122,311,l),
(92,153,l),
(142,80,l),
(158,-58,l),
(89,-22,l),
(67,99,l)
);
}
);
width = 600;
},
{
layerId = m007;
shapes = (
{
closed = 1;
nodes = (
(16,162,l),
(25,285,l),
(8,643,l),
(103,700,l),
(166,639,l),
(238,414,l),
(336,397,l),
(435,315,l),
(461,178,l),
(493,111,l),
(544,132,l),
(497,263,l),
(497,431,l),
(435,700,l),
(572,572,l),
(579,399,l),
(568,56,l),
(482,-12,l),
(410,93,l),
(396,249,l),
(354,333,l),
(215,333,l),
(171,391,l),
(103,556,l),
(76,613,l),
(76,513,l),
(122,311,l),
(92,153,l),
(142,80,l),
(158,-58,l),
(89,-22,l),
(67,99,l)
);
}
);
width = 600;
},
{
layerId = m008;
shapes = (
{
closed = 1;
nodes = (
(16,162,l),
(25,285,l),
(8,643,l),
(103,700,l),
(166,639,l),
(166,326,l),
(305,317,l),
(471,345,l),
(504,275,l),
(466,111,l),
(527,80,l),
(437,384,l),
(481,543,l),
(435,700,l),
(550,639,l),
(528,376,l),
(579,194,l),
(549,-12,l),
(389,34,l),
(443,253,l),
(323,253,l),
(176,253,l),
(89,308,l),
(103,556,l),
(76,613,l),
(76,513,l),
(122,311,l),
(92,153,l),
(142,80,l),
(158,-58,l),
(89,-22,l),
(67,99,l)
);
}
);
width = 600;
}
);
unicode = 72;
},
{
glyphname = I;
lastChange = "2024-03-01 04:16:20 +0000";
layers = (
{
layerId = m01;
shapes = (
{
closed = 1;
nodes = (
(202,236,l),
(299,379,l),
(316,598,l),
(454,700,l),
(565,598,l),
(565,454,l),
(411,333,l),
(211,405,l),
(200,530,l),
(111,609,l),
(111,474,l),
(168,406,l),
(333,300,l),
(496,331,l),
(541,144,l),
(479,74,l),
(454,256,l),
(336,235,l),
(150,328,l),
(48,454,l),
(48,641,l),
(147,677,l),
(224,617,l),
(265,454,l),
(432,406,l),
(514,524,l),
(460,620,l),
(384,578,l),
(370,353,l),
(261,191,l),
(186,119,l),
(122,18,l),
(27,0,l),
(122,147,l)
);
}
);
width = 600;
},
{
layerId = m002;
shapes = (
{
closed = 1;
nodes = (
(291,316,l),
(299,379,l),
(365,681,l),
(454,700,l),
(565,598,l),
(565,454,l),
(411,333,l),
(211,405,l),
(200,530,l),
(111,609,l),
(111,474,l),
(168,406,l),
(333,300,l),
(397,234,l),
(466,47,l),
(404,-23,l),
(379,159,l),
(267,242,l),
(150,328,l),
(48,454,l),
(48,641,l),
(147,677,l),
(224,617,l),
(265,454,l),
(432,406,l),
(514,524,l),
(460,620,l),
(433,661,l),
(370,353,l),
(353,304,l),
(329,232,l),
(265,131,l),
(170,113,l),
(265,260,l)
);
}
);
width = 600;
},
{
layerId = m003;
shapes = (
{
closed = 1;
nodes = (
(397,254,l),
(405,312,l),
(365,494,l),
(454,700,l),
(565,607,l),
(565,476,l),
(411,365,l),
(211,431,l),
(200,545,l),
(111,617,l),
(111,494,l),
(131,384,l),
(186,271,l),
(250,211,l),
(319,41,l),
(257,-23,l),
(232,143,l),
(120,219,l),
(96,344,l),
(48,476,l),
(48,646,l),
(147,679,l),
(224,624,l),
(265,476,l),
(432,432,l),
(514,540,l),
(472,578,l),
(454,518,l),
(476,288,l),
(459,243,l),
(435,178,l),
(371,85,l),
(276,69,l),
(371,203,l)
);
}
);
width = 600;
},
{
layerId = m004;
shapes = (
{
closed = 1;
nodes = (
(345,287,l),
(353,343,l),
(365,501,l),
(454,704,l),
(614,738,l),
(614,609,l),
(460,500,l),
(276,670,l),
(186,644,l),
(155,622,l),
(205,507,l),
(225,398,l),
(280,288,l),
(250,223,l),
(233,56,l),
(151,0,l),
(172,156,l),
(190,284,l),
(190,360,l),
(142,489,l),
(48,651,l),
(105,713,l),
(213,712,l),
(294,732,l),
(481,566,l),
(563,672,l),
(472,584,l),
(454,525,l),
(424,320,l),
(407,276,l),
(383,212,l),
(402,39,l),
(320,17,l),
(319,237,l)
);
}
);
width = 600;
},
{
layerId = m005;
shapes = (
{
closed = 1;
nodes = (
(390,203,l),
(423,295,l),
(436,445,l),
(489,542,l),
(489,642,l),
(425,686,l),
(333,684,l),
(276,670,l),
(231,618,l),
(190,569,l),
(205,507,l),
(225,398,l),
(225,288,l),
(250,223,l),
(268,91,l),
(190,0,l),
(156,106,l),
(150,284,l),
(156,389,l),
(142,489,l),
(101,569,l),
(109,660,l),
(172,685,l),
(294,732,l),
(366,751,l),
(517,736,l),
(569,596,l),
(538,500,l),
(511,417,l),
(505,328,l),
(488,245,l),
(452,186,l),
(421,119,l),
(333,88,l)
);
}
);
width = 600;
},
{
layerId = m006;
shapes = (
{
closed = 1;
nodes = (
(325,134,l),
(358,226,l),
(401,432,l),
(454,529,l),
(454,629,l),
(390,673,l),
(333,719,l),
(243,701,l),
(198,649,l),
(175,562,l),
(190,500,l),
(225,398,l),
(282,331,l),
(307,266,l),
(325,134,l),
(247,43,l),
(268,176,l),
(207,327,l),
(156,389,l),
(127,482,l),
(86,562,l),
(109,660,l),
(139,716,l),
(261,763,l),
(366,763,l),
(482,723,l),
(534,583,l),
(503,487,l),
(476,404,l),
(440,259,l),
(423,176,l),
(387,117,l),
(356,50,l),
(268,19,l)
);
}
);
width = 600;
},
{
layerId = m007;
shapes = (
{
closed = 1;
nodes = (
(291,134,l),
(309,226,l),
(365,401,l),
(402,516,l),
(397,601,l),
(373,673,l),
(333,700,l),
(287,695,l),
(242,643,l),
(237,562,l),
(252,500,l),
(291,401,l),
(317,334,l),
(328,269,l),
(436,144,l),
(430,52,l),
(332,176,l),
(242,330,l),
(222,392,l),
(189,482,l),
(148,562,l),
(153,654,l),
(183,710,l),
(261,763,l),
(366,763,l),
(454,715,l),
(454,570,l),
(451,474,l),
(424,391,l),
(397,259,l),
(387,176,l),
(356,117,l),
(333,50,l),
(243,19,l)
);
}
);
width = 600;
},
{
layerId = m008;
shapes = (
{
closed = 1;
nodes = (
(197,106,l),
(255,198,l),
(318,373,l),
(298,488,l),
(332,573,l),
(298,645,l),
(279,672,l),
(262,648,l),
(278,589,l),
(262,514,l),
(272,452,l),
(300,397,l),
(298,318,l),
(352,176,l),
(439,69,l),
(433,-23,l),
(340,69,l),
(225,298,l),
(210,385,l),
(189,462,l),
(205,517,l),
(180,645,l),
(177,712,l),
(228,745,l),
(287,772,l),
(370,710,l),
(396,542,l),
(367,446,l),
(370,363,l),
(343,231,l),
(333,148,l),
(262,89,l),
(262,-28,l),
(172,-59,l)
);
}
);
width = 600;
}
);
unicode = 73;
},
{
glyphname = J;
lastChange = "2024-03-01 20:34:34 +0000";
layers = (
{
layerId = m01;
shapes = (
{
closed = 1;
nodes = (
(211,273,l),
(315,639,l),
(464,659,l),
(595,639,l),
(595,500,l),
(538,447,l),
(450,391,l),
(296,475,l),
(104,528,l),
(169,350,l),
(406,365,l),
(514,144,l),
(479,25,l),
(380,293,l),
(150,293,l),
(66,410,l),
(23,528,l),
(97,595,l),
(230,557,l),
(413,456,l),
(545,510,l),
(545,601,l),
(375,601,l),
(305,266,l),
(156,167,l),
(193,48,l),
(90,84,l),
(63,192,l)
);
}
);
width = 600;
},
{
layerId = m002;
shapes = (
{
closed = 1;
nodes = (
(177,365,l),
(378,632,l),
(464,676,l),
(595,656,l),
(595,517,l),
(562,464,l),
(450,408,l),
(337,458,l),
(216,483,l),
(328,335,l),
(514,276,l),
(514,89,l),
(438,42,l),
(468,204,l),
(309,278,l),
(225,395,l),
(135,483,l),
(209,550,l),
(314,550,l),
(413,473,l),
(522,513,l),
(545,618,l),
(438,594,l),
(245,358,l),
(96,259,l),
(133,140,l),
(30,176,l),
(3,284,l)
);
}
);
width = 600;
},
{
layerId = m003;
shapes = (
{
closed = 1;
nodes = (
(191,493,l),
(375,612,l),
(454,656,l),
(529,612,l),
(593,520,l),
(574,427,l),
(521,329,l),
(418,379,l),
(308,404,l),
(410,256,l),
(450,152,l),
(354,20,l),
(245,20,l),
(385,138,l),
(393,199,l),
(316,316,l),
(234,404,l),
(301,471,l),
(397,471,l),
(487,394,l),
(546,493,l),
(506,577,l),
(430,574,l),
(254,486,l),
(175,404,l),
(100,350,l),
(6,386,l),
(122,453,l)
);
}
);
width = 600;
},
{
layerId = m004;
shapes = (
{
closed = 1;
nodes = (
(315,487,l),
(397,509,l),
(432,640,l),
(507,612,l),
(544,512,l),
(590,419,l),
(567,275,l),
(491,282,l),
(411,321,l),
(367,248,l),
(324,80,l),
(209,12,l),
(104,12,l),
(262,118,l),
(312,180,l),
(307,259,l),
(339,303,l),
(404,370,l),
(479,360,l),
(534,340,l),
(499,485,l),
(460,569,l),
(414,458,l),
(308,428,l),
(176,489,l),
(104,453,l),
(13,489,l),
(126,556,l)
);
}
);
width = 600;
},
{
layerId = m005;
shapes = (
{
closed = 1;
nodes = (
(271,676,l),
(364,619,l),
(410,538,l),
(496,510,l),
(537,410,l),
(589,317,l),
(537,263,l),
(429,201,l),
(386,155,l),
(348,88,l),
(177,0,l),
(50,19,l),
(28,141,l),
(156,82,l),
(215,81,l),
(280,99,l),
(317,143,l),
(357,244,l),
(437,266,l),
(486,314,l),
(486,383,l),
(442,467,l),
(346,568,l),
(262,617,l),
(193,685,l),
(136,665,l),
(65,685,l),
(154,724,l)
);
}
);
width = 600;
},
{
layerId = m006;
shapes = (
{
closed = 1;
nodes = (
(419,643,l),
(490,559,l),
(508,468,l),
(581,415,l),
(589,307,l),
(568,139,l),
(501,104,l),
(384,24,l),
(329,-6,l),
(192,-17,l),
(119,124,l),
(5,182,l),
(22,305,l),
(125,209,l),
(181,189,l),
(220,121,l),
(272,79,l),
(335,105,l),
(417,100,l),
(469,169,l),
(532,297,l),
(516,391,l),
(457,517,l),
(392,589,l),
(348,676,l),
(288,675,l),
(227,716,l),
(323,725,l)
);
}
);
width = 600;
},
{
layerId = m007;
shapes = (
{
closed = 1;
nodes = (
(480,624,l),
(521,535,l),
(521,454,l),
(563,389,l),
(536,297,l),
(534,139,l),
(467,104,l),
(350,24,l),
(295,-6,l),
(158,-17,l),
(85,124,l),
(39,266,l),
(67,356,l),
(123,240,l),
(147,189,l),
(167,85,l),
(219,43,l),
(291,63,l),
(383,100,l),
(435,169,l),
(464,244,l),
(478,327,l),
(461,449,l),
(422,527,l),
(393,610,l),
(365,687,l),
(320,738,l),
(414,719,l)
);
}
);
width = 600;
},
{
layerId = m008;
shapes = (
{
closed = 1;
nodes = (
(485,608,l),
(490,502,l),
(478,420,l),
(470,331,l),
(464,255,l),
(464,133,l),
(429,49,l),
(372,4,l),
(246,-24,l),
(127,26,l),
(77,126,l),
(81,276,l),
(111,369,l),
(158,301,l),
(143,222,l),
(180,123,l),
(215,56,l),
(300,56,l),
(339,98,l),
(371,141,l),
(391,213,l),
(391,294,l),
(415,423,l),
(406,508,l),
(406,597,l),
(406,647,l),
(400,767,l),
(472,690,l)
);
}
);
width = 600;
}
);
unicode = 74;
},
{
glyphname = K;
lastChange = "2024-03-08 19:48:14 +0000";
layers = (
{
layerId = m01;
shapes = (
{
closed = 1;
nodes = (
(112,150,l),
(272,206,l),
(431,410,l),
(512,471,l),
(445,543,l),
(258,333,l),
(60,410,l),
(56,573,l),
(178,662,l),
(327,553,l),
(445,274,l),
(457,166,l),
(527,41,l),
(407,106,l),
(353,379,l),
(211,582,l),
(114,503,l),
(221,389,l),
(420,612,l),
(549,553,l),
(577,411,l),
(477,380,l),
(238,119,l),
(56,105,l),
(21,274,l)
);
}
);
width = 600;
},
{
layerId = m002;
shapes = (
{
closed = 1;
nodes = (
(112,150,l),
(272,206,l),
(309,326,l),
(390,387,l),
(323,459,l),
(136,249,l),
(60,410,l),
(56,573,l),
(178,662,l),
(292,637,l),
(436,486,l),
(471,418,l),
(547,355,l),
(420,355,l),
(318,519,l),
(211,582,l),
(114,503,l),
(158,333,l),
(298,528,l),
(427,469,l),
(455,327,l),
(355,296,l),
(238,119,l),
(56,105,l),
(21,274,l)
);
}
);
width = 600;
},
{
layerId = m003;
shapes = (
{
closed = 1;
nodes = (
(239,87,l),
(328,184,l),
(253,255,l),
(307,346,l),
(253,418,l),
(136,249,l),
(60,410,l),
(56,573,l),
(178,662,l),
(267,694,l),
(464,624,l),
(525,579,l),
(622,557,l),
(508,500,l),
(343,601,l),
(219,609,l),
(114,503,l),
(158,333,l),
(228,487,l),
(357,428,l),
(385,286,l),
(320,255,l),
(404,164,l),
(340,101,l),
(218,-21,l)
);
}
);
width = 600;
},
{
layerId = m004;
shapes = (
{
closed = 1;
nodes = (
(512,156,l),
(402,85,l),
(297,210,l),
(202,195,l),
(149,120,l),
(34,218,l),
(10,410,l),
(56,573,l),
(178,662,l),
(267,694,l),
(340,545,l),
(401,500,l),
(498,478,l),
(384,421,l),
(267,522,l),
(208,609,l),
(114,503,l),
(91,291,l),
(124,189,l),
(252,277,l),
(316,255,l),
(364,210,l),
(413,152,l),
(465,217,l),
(543,291,l)
);
}
);
width = 600;
},
{
layerId = m005;
shapes = (
{
closed = 1;
nodes = (
(507,189,l),
(397,118,l),
(273,91,l),
(208,43,l),
(143,76,l),
(59,218,l),
(35,410,l),
(81,650,l),
(165,634,l),
(231,589,l),
(330,466,l),
(403,447,l),
(501,463,l),
(417,367,l),
(271,417,l),
(227,500,l),
(139,565,l),
(116,291,l),
(149,189,l),
(210,125,l),
(284,159,l),
(332,179,l),
(408,185,l),
(460,250,l),
(568,291,l)
);
}
);
width = 600;
},
{
layerId = m006;
shapes = (
{
closed = 1;
nodes = (
(503,245,l),
(329,245,l),
(286,126,l),
(145,17,l),
(80,76,l),
(61,218,l),
(37,410,l),
(48,674,l),
(145,674,l),
(190,506,l),
(332,466,l),
(405,447,l),
(503,463,l),
(419,367,l),
(273,417,l),
(186,417,l),
(105,560,l),
(118,291,l),
(151,189,l),
(176,111,l),
(190,166,l),
(204,217,l),
(216,290,l),
(426,290,l),
(578,272,l)
);
}
);
width = 600;
},
{
layerId = m007;
shapes = (
{
closed = 1;
nodes = (
(453,88,l),
(193,296,l),
(259,127,l),
(193,18,l),
(89,77,l),
(70,219,l),
(46,411,l),
(96,675,l),
(193,615,l),
(207,496,l),
(267,500,l),
(388,625,l),
(486,641,l),
(424,529,l),
(277,394,l),
(180,409,l),
(153,561,l),
(138,316,l),
(172,167,l),
(195,112,l),
(209,167,l),
(189,250,l),
(126,341,l),
(223,360,l),
(571,77,l)
);
}
);
width = 600;
},
{
layerId = m008;
shapes = (
{
closed = 1;
nodes = (
(438,17,l),
(206,263,l),
(251,76,l),
(189,0,l),
(104,46,l),
(63,216,l),
(82,429,l),
(48,700,l),
(179,669,l),
(206,500,l),
(267,372,l),
(432,668,l),
(528,700,l),
(357,352,l),
(82,272,l),
(182,379,l),
(129,603,l),
(149,313,l),
(140,153,l),
(167,66,l),
(178,224,l),
(140,245,l),
(167,315,l),
(267,312,l),
(578,-18,l)
);
}
);
width = 600;
}
);
unicode = 75;
},
{
glyphname = L;
lastChange = "2024-03-08 00:45:47 +0000";
layers = (
{
layerId = m01;
shapes = (
{
closed = 1;
nodes = (
(297,337,l),
(476,468,l),
(498,522,l),
(470,536,l),
(269,352,l),
(66,439,l),
(39,577,l),
(247,700,l),
(338,396,l),
(379,261,l),
(588,0,l),
(507,0,l),
(341,266,l),
(183,621,l),
(121,544,l),
(249,406,l),
(470,629,l),
(559,515,l),
(535,370,l),
(155,281,l),
(0,57,l),
(66,308,l)
);
}
);
width = 600;
},
{
layerId = m002;
shapes = (
{
closed = 1;
nodes = (
(167,352,l),
(348,310,l),
(370,364,l),
(342,378,l),
(269,352,l),
(66,439,l),
(39,577,l),
(247,700,l),
(297,591,l),
(371,492,l),
(578,303,l),
(497,303,l),
(300,461,l),
(183,621,l),
(121,544,l),
(249,406,l),
(342,471,l),
(431,357,l),
(407,212,l),
(155,281,l),
(0,57,l),
(66,308,l)
);
}
);
width = 600;
},
{
layerId = m003;
shapes = (
{
closed = 1;
nodes = (
(143,237,l),
(264,290,l),
(286,344,l),
(258,358,l),
(175,370,l),
(66,439,l),
(39,577,l),
(156,700,l),
(281,675,l),
(355,576,l),
(500,477,l),
(419,477,l),
(256,601,l),
(156,621,l),
(121,544,l),
(179,430,l),
(264,420,l),
(337,375,l),
(313,230,l),
(138,175,l),
(217,45,l),
(41,141,l)
);
}
);
width = 600;
},
{
layerId = m004;
shapes = (
{
closed = 1;
nodes = (
(313,164,l),
(308,260,l),
(287,315,l),
(257,306,l),
(188,259,l),
(120,261,l),
(7,345,l),
(10,514,l),
(119,580,l),
(205,636,l),
(378,661,l),
(319,607,l),
(151,509,l),
(63,456,l),
(90,376,l),
(150,306,l),
(220,356,l),
(304,372,l),
(384,249,l),
(351,115,l),
(497,73,l),
(303,25,l)
);
}
);
width = 600;
},
{
layerId = m005;
shapes = (
{
closed = 1;
nodes = (
(305,147,l),
(278,229,l),
(257,284,l),
(227,275,l),
(158,228,l),
(120,261,l),
(34,325,l),
(10,514,l),
(36,619,l),
(122,675,l),
(295,700,l),
(236,646,l),
(68,548,l),
(63,456,l),
(90,376,l),
(150,306,l),
(190,325,l),
(274,341,l),
(354,218,l),
(391,124,l),
(551,102,l),
(357,54,l)
);
}
);
width = 600;
},
{
layerId = m006;
shapes = (
{
closed = 1;
nodes = (
(221,19,l),
(126,19,l),
(93,19,l),
(75,65,l),
(74,148,l),
(36,181,l),
(34,325,l),
(10,514,l),
(36,619,l),
(122,675,l),
(295,700,l),
(236,646,l),
(68,548,l),
(63,456,l),
(90,376,l),
(106,304,l),
(106,245,l),
(151,86,l),
(244,116,l),
(365,102,l),
(551,102,l),
(357,54,l)
);
}
);
width = 600;
},
{
layerId = m007;
shapes = (
{
closed = 1;
nodes = (
(241,68,l),
(153,33,l),
(122,21,l),
(88,58,l),
(57,135,l),
(10,152,l),
(34,325,l),
(10,514,l),
(20,591,l),
(43,637,l),
(115,700,l),
(103,621,l),
(63,548,l),
(63,456,l),
(90,376,l),
(106,304,l),
(90,197,l),
(153,95,l),
(228,166,l),
(349,209,l),
(535,205,l),
(340,160,l)
);
}
);
width = 600;
},
{
layerId = m008;
shapes = (
{
closed = 1;
nodes = (
(254,33,l),
(170,19,l),
(122,21,l),
(88,58,l),
(57,135,l),
(55,189,l),
(53,354,l),
(29,543,l),
(42,612,l),
(43,684,l),
(93,700,l),
(112,666,l),
(112,577,l),
(109,485,l),
(109,405,l),
(125,333,l),
(122,204,l),
(160,98,l),
(236,116,l),
(461,129,l),
(542,37,l),
(342,48,l)
);
}
);
width = 600;
}
);
unicode = 76;
},
{
glyphname = M;
lastChange = "2024-03-08 00:52:56 +0000";
layers = (
{
layerId = m01;
shapes = (
{
closed = 1;
nodes = (
(199,214,l),
(273,372,l),
(463,486,l),
(500,542,l),
(410,524,l),
(190,404,l),
(60,451,l),
(59,586,l),
(153,655,l),
(311,646,l),
(452,263,l),
(531,222,l),
(479,56,l),
(428,172,l),
(314,562,l),
(162,613,l),
(100,500,l),
(212,481,l),
(372,565,l),
(452,620,l),
(561,562,l),
(537,434,l),
(311,284,l),
(179,107,l),
(49,97,l)
);
}
);
width = 600;
},
{
layerId = m002;
shapes = (
{
closed = 1;
nodes = (
(89,166,l),
(117,231,l),
(307,345,l),
(344,401,l),
(254,383,l),
(110,359,l),
(60,451,l),
(59,586,l),
(153,655,l),
(311,646,l),
(452,263,l),
(531,222,l),
(479,56,l),
(428,172,l),
(314,562,l),
(162,613,l),
(100,500,l),
(132,436,l),
(216,424,l),
(296,479,l),
(405,421,l),
(381,293,l),
(155,143,l),
(69,59,l),
(-61,49,l)
);
}
);
width = 600;
},
{
layerId = m003;
shapes = (
{
closed = 1;
nodes = (
(121,148,l),
(94,213,l),
(215,290,l),
(252,346,l),
(162,328,l),
(110,359,l),
(60,451,l),
(59,586,l),
(232,704,l),
(390,695,l),
(531,312,l),
(574,201,l),
(479,56,l),
(507,221,l),
(393,611,l),
(241,662,l),
(100,500,l),
(132,436,l),
(175,380,l),
(204,424,l),
(313,366,l),
(289,238,l),
(183,178,l),
(183,58,l),
(98,-41,l)
);
}
);
width = 600;
},
{
layerId = m004;
shapes = (
{
closed = 1;
nodes = (
(121,148,l),
(94,213,l),
(152,264,l),
(130,301,l),
(52,351,l),
(61,458,l),
(135,549,l),
(216,656,l),
(426,645,l),
(546,542,l),
(531,312,l),
(574,201,l),
(479,56,l),
(507,221,l),
(497,473,l),
(407,606,l),
(197,563,l),
(183,493,l),
(121,408,l),
(125,382,l),
(191,321,l),
(235,250,l),
(183,178,l),
(183,58,l),
(98,-41,l)
);
}
);
width = 600;
},
{
layerId = m005;
shapes = (
{
closed = 1;
nodes = (
(59,118,l),
(66,201,l),
(40,297,l),
(18,334,l),
(53,521,l),
(127,662,l),
(250,612,l),
(345,668,l),
(533,500,l),
(533,349,l),
(531,312,l),
(574,201,l),
(479,56,l),
(507,221,l),
(450,364,l),
(438,500,l),
(274,553,l),
(232,540,l),
(143,561,l),
(127,493,l),
(79,354,l),
(112,250,l),
(121,148,l),
(207,99,l),
(149,0,l)
);
}
);
width = 600;
},
{
layerId = m006;
shapes = (
{
closed = 1;
nodes = (
(80,230,l),
(87,313,l),
(61,409,l),
(39,446,l),
(74,633,l),
(214,551,l),
(316,389,l),
(411,445,l),
(533,500,l),
(533,349,l),
(531,312,l),
(531,57,l),
(436,-10,l),
(464,155,l),
(455,297,l),
(475,417,l),
(340,330,l),
(298,317,l),
(230,450,l),
(136,519,l),
(100,466,l),
(133,362,l),
(142,260,l),
(156,127,l),
(98,28,l)
);
}
);
width = 600;
},
{
layerId = m007;
shapes = (
{
closed = 1;
nodes = (
(80,230,l),
(87,313,l),
(61,478,l),
(39,515,l),
(74,702,l),
(214,620,l),
(316,458,l),
(411,617,l),
(533,672,l),
(533,349,l),
(531,312,l),
(531,57,l),
(436,-10,l),
(464,155,l),
(455,297,l),
(475,589,l),
(364,330,l),
(275,330,l),
(230,519,l),
(136,588,l),
(100,535,l),
(151,362,l),
(160,260,l),
(174,127,l),
(98,28,l)
);
}
);
width = 600;
},
{
layerId = m008;
shapes = (
{
closed = 1;
nodes = (
(64,196,l),
(71,279,l),
(39,444,l),
(39,515,l),
(74,702,l),
(197,671,l),
(291,467,l),
(423,700,l),
(545,653,l),
(545,434,l),
(551,279,l),
(493,57,l),
(399,-10,l),
(423,167,l),
(477,432,l),
(449,592,l),
(319,298,l),
(250,339,l),
(209,523,l),
(156,583,l),
(120,480,l),
(151,362,l),
(160,260,l),
(176,67,l),
(64,-18,l)
);
}
);
width = 600;
}
);
unicode = 77;
},
{
glyphname = N;
lastChange = "2024-03-08 03:55:57 +0000";
layers = (
{
layerId = m01;
shapes = (
{
closed = 1;
nodes = (
(125,134,l),
(307,335,l),
(453,467,l),
(500,509,l),
(430,544,l),
(212,354,l),
(30,382,l),
(30,520,l),
(116,608,l),
(220,644,l),
(456,260,l),
(524,7,l),
(423,114,l),
(435,198,l),
(226,562,l),
(122,567,l),
(90,457,l),
(208,417,l),
(372,566,l),
(453,605,l),
(539,572,l),
(525,427,l),
(307,255,l),
(93,22,l),
(48,188,l)
);
}
);
width = 600;
},
{
layerId = m002;
shapes = (
{
closed = 1;
nodes = (
(95,85,l),
(256,279,l),
(257,354,l),
(304,396,l),
(234,431,l),
(125,291,l),
(30,382,l),
(30,520,l),
(170,675,l),
(381,378,l),
(500,279,l),
(588,392,l),
(539,206,l),
(455,213,l),
(387,296,l),
(176,586,l),
(90,457,l),
(121,354,l),
(176,453,l),
(257,492,l),
(343,459,l),
(329,314,l),
(246,168,l),
(209,109,l),
(83,-8,l)
);
}
);
width = 600;
},
{
layerId = m003;
shapes = (
{
closed = 1;
nodes = (
(95,85,l),
(170,258,l),
(171,333,l),
(131,352,l),
(61,387,l),
(26,457,l),
(25,632,l),
(186,658,l),
(313,413,l),
(431,236,l),
(500,134,l),
(588,247,l),
(539,61,l),
(455,68,l),
(387,151,l),
(319,324,l),
(161,575,l),
(90,583,l),
(90,432,l),
(141,409,l),
(227,376,l),
(243,293,l),
(246,168,l),
(209,109,l),
(83,-8,l)
);
}
);
width = 600;
},
{
layerId = m004;
shapes = (
{
closed = 1;
nodes = (
(92,85,l),
(85,183,l),
(94,386,l),
(76,426,l),
(43,497,l),
(8,548,l),
(123,700,l),
(275,546,l),
(313,413,l),
(450,231,l),
(526,333,l),
(544,513,l),
(582,342,l),
(537,168,l),
(431,150,l),
(319,324,l),
(250,463,l),
(143,610,l),
(94,514,l),
(119,464,l),
(165,384,l),
(159,216,l),
(158,148,l),
(155,61,l),
(78,-8,l)
);
}
);
width = 600;
},
{
layerId = m005;
shapes = (
{
closed = 1;
nodes = (
(92,85,l),
(85,183,l),
(94,386,l),
(76,426,l),
(56,625,l),
(67,700,l),
(253,590,l),
(335,424,l),
(407,213,l),
(455,339,l),
(508,452,l),
(526,632,l),
(564,461,l),
(519,287,l),
(491,208,l),
(387,56,l),
(310,341,l),
(260,430,l),
(118,598,l),
(135,519,l),
(165,384,l),
(159,216,l),
(158,148,l),
(155,61,l),
(78,-8,l)
);
}
);
width = 600;
},
{
layerId = m006;
shapes = (
{
closed = 1;
nodes = (
(92,85,l),
(85,183,l),
(72,348,l),
(76,426,l),
(56,625,l),
(67,700,l),
(253,590,l),
(335,424,l),
(434,252,l),
(488,318,l),
(508,452,l),
(526,632,l),
(564,461,l),
(576,287,l),
(522,187,l),
(455,82,l),
(280,330,l),
(230,419,l),
(138,567,l),
(155,488,l),
(165,384,l),
(159,216,l),
(169,163,l),
(193,35,l),
(108,-15,l)
);
}
);
width = 600;
},
{
layerId = m007;
shapes = (
{
closed = 1;
nodes = (
(92,85,l),
(85,183,l),
(72,348,l),
(76,426,l),
(61,679,l),
(193,669,l),
(253,590,l),
(335,424,l),
(399,252,l),
(469,318,l),
(480,460,l),
(488,669,l),
(564,615,l),
(576,287,l),
(522,187,l),
(387,97,l),
(280,330,l),
(230,419,l),
(155,615,l),
(127,564,l),
(165,384,l),
(166,295,l),
(176,242,l),
(166,114,l),
(108,-15,l)
);
}
);
width = 600;
},
{
layerId = m008;
shapes = (
{
closed = 1;
nodes = (
(66,74,l),
(70,176,l),
(59,317,l),
(61,426,l),
(61,700,l),
(226,674,l),
(273,521,l),
(356,358,l),
(417,136,l),
(488,223,l),
(488,460,l),
(488,700,l),
(564,602,l),
(555,159,l),
(470,4,l),
(368,31,l),
(303,289,l),
(226,404,l),
(188,592,l),
(130,614,l),
(144,404,l),
(134,295,l),
(143,176,l),
(167,51,l),
(108,-15,l)
);
}
);
width = 600;
}
);
unicode = 78;
},
{
glyphname = O;
lastChange = "2024-03-08 04:02:32 +0000";
layers = (
{
layerId = m01;
shapes = (
{
closed = 1;
nodes = (
(137,133,l),
(334,313,l),
(447,433,l),
(511,504,l),
(430,544,l),
(212,354,l),
(16,371,l),
(16,558,l),
(116,664,l),
(279,664,l),
(376,469,l),
(481,260,l),
(506,113,l),
(524,7,l),
(423,114,l),
(423,192,l),
(256,613,l),
(125,602,l),
(86,500,l),
(172,450,l),
(372,566,l),
(512,633,l),
(573,520,l),
(556,416,l),
(318,203,l),
(74,22,l),
(61,114,l),
(47,220,l)
);
}
);
width = 600;
},
{
layerId = m002;
shapes = (
{
closed = 1;
nodes = (
(80,85,l),
(253,260,l),
(314,351,l),
(378,422,l),
(297,462,l),
(216,403,l),
(38,403,l),
(38,590,l),
(138,696,l),
(301,696,l),
(429,616,l),
(534,407,l),
(559,260,l),
(577,154,l),
(491,261,l),
(457,506,l),
(278,645,l),
(147,634,l),
(108,532,l),
(130,462,l),
(239,484,l),
(345,516,l),
(440,438,l),
(423,334,l),
(286,180,l),
(196,138,l),
(152,56,l),
(102,-38,l)
);
}
);
width = 600;
},
{
layerId = m003;
shapes = (
{
closed = 1;
nodes = (
(383,7,l),
(239,206,l),
(219,269,l),
(283,340,l),
(202,380,l),
(121,321,l),
(38,403,l),
(38,590,l),
(138,696,l),
(301,696,l),
(460,684,l),
(565,475,l),
(565,221,l),
(453,167,l),
(523,285,l),
(472,575,l),
(278,645,l),
(147,634,l),
(108,532,l),
(130,462,l),
(144,402,l),
(250,434,l),
(345,356,l),
(328,252,l),
(323,226,l),
(350,130,l),
(424,73,l),
(508,9,l)
);
}
);
width = 600;
},
{
layerId = m004;
shapes = (
{
closed = 1;
nodes = (
(451,21,l),
(208,75,l),
(188,138,l),
(209,200,l),
(171,297,l),
(107,339,l),
(24,421,l),
(69,623,l),
(193,694,l),
(356,694,l),
(515,643,l),
(565,475,l),
(565,221,l),
(453,167,l),
(523,285,l),
(480,590,l),
(333,643,l),
(202,632,l),
(139,565,l),
(116,480,l),
(130,420,l),
(219,351,l),
(271,216,l),
(271,121,l),
(359,97,l),
(437,110,l),
(492,87,l),
(576,23,l)
);
}
);
width = 600;
},
{
layerId = m005;
shapes = (
{
closed = 1;
nodes = (
(453,89,l),
(203,44,l),
(139,97,l),
(103,179,l),
(99,297,l),
(35,339,l),
(24,463,l),
(69,623,l),
(193,694,l),
(356,694,l),
(515,643,l),
(565,475,l),
(508,317,l),
(396,263,l),
(473,396,l),
(480,590,l),
(333,643,l),
(202,632,l),
(139,565,l),
(116,522,l),
(130,462,l),
(147,351,l),
(165,195,l),
(236,94,l),
(333,93,l),
(387,151,l),
(444,167,l),
(550,168,l)
);
}
);
width = 600;
},
{
layerId = m006;
shapes = (
{
closed = 1;
nodes = (
(423,53,l),
(173,8,l),
(109,61,l),
(73,143,l),
(35,223,l),
(35,339,l),
(24,463,l),
(69,623,l),
(193,694,l),
(358,694,l),
(528,632,l),
(582,426,l),
(521,233,l),
(401,167,l),
(483,330,l),
(491,567,l),
(333,632,l),
(202,632,l),
(139,565,l),
(116,522,l),
(130,462,l),
(82,283,l),
(135,159,l),
(206,58,l),
(303,57,l),
(357,115,l),
(414,131,l),
(520,132,l)
);
}
);
width = 600;
},
{
layerId = m007;
shapes = (
{
closed = 1;
nodes = (
(441,40,l),
(173,31,l),
(109,61,l),
(73,143,l),
(35,223,l),
(35,339,l),
(24,463,l),
(69,623,l),
(193,694,l),
(358,694,l),
(508,590,l),
(582,426,l),
(521,194,l),
(440,194,l),
(508,355,l),
(467,549,l),
(333,632,l),
(202,632,l),
(139,582,l),
(116,539,l),
(82,449,l),
(82,283,l),
(135,159,l),
(206,81,l),
(289,81,l),
(391,81,l),
(418,139,l),
(504,174,l)
);
}
);
width = 600;
},
{
layerId = m008;
shapes = (
{
closed = 1;
nodes = (
(496,85,l),
(226,6,l),
(129,93,l),
(93,175,l),
(45,232,l),
(35,339,l),
(35,463,l),
(103,623,l),
(226,694,l),
(358,694,l),
(508,590,l),
(567,402,l),
(520,183,l),
(442,198,l),
(520,367,l),
(467,549,l),
(333,632,l),
(235,632,l),
(173,582,l),
(150,539,l),
(112,459,l),
(100,283,l),
(167,191,l),
(226,113,l),
(331,93,l),
(434,126,l),
(473,184,l),
(559,219,l)
);
}
);
width = 600;
}
);
unicode = 79;
},
{
glyphname = P;
lastChange = "2024-03-08 04:35:36 +0000";
layers = (
{
layerId = m01;
shapes = (
{
closed = 1;
nodes = (
(148,302,l),
(336,374,l),
(481,456,l),
(518,548,l),
(403,548,l),
(212,373,l),
(28,425,l),
(16,588,l),
(116,700,l),
(322,667,l),
(376,494,l),
(434,292,l),
(556,163,l),
(524,7,l),
(467,163,l),
(372,213,l),
(285,607,l),
(163,632,l),
(83,500,l),
(198,447,l),
(362,598,l),
(487,619,l),
(594,575,l),
(541,409,l),
(127,213,l),
(154,33,l),
(69,61,l),
(47,232,l)
);
}
);
width = 600;
},
{
layerId = m002;
shapes = (
{
closed = 1;
nodes = (
(206,206,l),
(219,255,l),
(364,337,l),
(401,429,l),
(286,429,l),
(212,373,l),
(28,425,l),
(16,588,l),
(116,700,l),
(322,667,l),
(376,494,l),
(420,493,l),
(542,364,l),
(510,208,l),
(453,364,l),
(358,414,l),
(285,607,l),
(163,632,l),
(83,500,l),
(198,447,l),
(245,479,l),
(370,500,l),
(477,456,l),
(424,290,l),
(185,117,l),
(212,-63,l),
(127,-35,l),
(105,136,l)
);
}
);
width = 600;
},
{
layerId = m003;
shapes = (
{
closed = 1;
nodes = (
(165,166,l),
(218,218,l),
(278,296,l),
(294,400,l),
(208,397,l),
(134,341,l),
(28,425,l),
(16,588,l),
(116,700,l),
(322,667,l),
(376,535,l),
(420,493,l),
(542,409,l),
(559,283,l),
(446,404,l),
(351,454,l),
(285,607,l),
(163,632,l),
(74,535,l),
(120,415,l),
(167,447,l),
(263,471,l),
(370,427,l),
(338,249,l),
(203,92,l),
(335,29,l),
(255,-12,l),
(134,48,l)
);
}
);
width = 600;
},
{
layerId = m004;
shapes = (
{
closed = 1;
nodes = (
(165,166,l),
(218,218,l),
(278,296,l),
(294,400,l),
(174,438,l),
(84,415,l),
(19,534,l),
(71,689,l),
(219,707,l),
(322,667,l),
(376,642,l),
(420,600,l),
(542,516,l),
(559,390,l),
(446,511,l),
(361,579,l),
(285,607,l),
(236,626,l),
(104,617,l),
(100,489,l),
(156,500,l),
(263,471,l),
(370,427,l),
(338,249,l),
(203,92,l),
(335,29,l),
(255,-12,l),
(134,48,l)
);
}
);
width = 600;
},
{
layerId = m005;
shapes = (
{
closed = 1;
nodes = (
(154,96,l),
(186,145,l),
(246,223,l),
(205,309,l),
(142,365,l),
(99,450,l),
(81,584,l),
(186,710,l),
(330,673,l),
(412,599,l),
(453,556,l),
(479,501,l),
(562,378,l),
(533,255,l),
(471,409,l),
(416,503,l),
(356,556,l),
(317,592,l),
(191,631,l),
(151,539,l),
(151,473,l),
(212,381,l),
(281,336,l),
(306,176,l),
(222,83,l),
(212,0,l),
(132,-41,l),
(134,48,l)
);
}
);
width = 600;
},
{
layerId = m006;
shapes = (
{
closed = 1;
nodes = (
(153,120,l),
(168,173,l),
(173,280,l),
(149,371,l),
(86,427,l),
(87,543,l),
(69,677,l),
(209,711,l),
(353,674,l),
(435,600,l),
(496,537,l),
(481,478,l),
(468,330,l),
(368,253,l),
(417,412,l),
(434,519,l),
(379,557,l),
(340,593,l),
(214,632,l),
(139,632,l),
(139,566,l),
(156,443,l),
(225,398,l),
(233,233,l),
(221,107,l),
(211,24,l),
(131,-17,l),
(133,72,l)
);
}
);
width = 600;
},
{
layerId = m007;
shapes = (
{
closed = 1;
nodes = (
(138,113,l),
(142,171,l),
(123,278,l),
(92,342,l),
(84,425,l),
(85,541,l),
(67,675,l),
(207,709,l),
(424,668,l),
(506,594,l),
(525,472,l),
(490,422,l),
(390,306,l),
(199,357,l),
(404,385,l),
(460,477,l),
(450,551,l),
(411,587,l),
(212,630,l),
(137,630,l),
(137,564,l),
(154,441,l),
(168,369,l),
(183,231,l),
(199,119,l),
(189,36,l),
(129,-19,l),
(118,65,l)
);
}
);
width = 600;
},
{
layerId = m008;
shapes = (
{
closed = 1;
nodes = (
(98,125,l),
(122,199,l),
(95,270,l),
(74,343,l),
(96,448,l),
(75,542,l),
(91,676,l),
(231,710,l),
(448,669,l),
(542,579,l),
(550,376,l),
(417,299,l),
(196,299,l),
(136,356,l),
(321,342,l),
(495,418,l),
(475,527,l),
(418,612,l),
(236,631,l),
(171,622,l),
(154,556,l),
(171,455,l),
(144,370,l),
(184,262,l),
(167,131,l),
(183,48,l),
(117,0,l),
(108,66,l)
);
}
);
width = 600;
}
);
unicode = 80;
},
{
glyphname = Q;
lastChange = "2024-03-08 19:49:43 +0000";
layers = (
{
layerId = m01;
shapes = (
{
closed = 1;
nodes = (
(225,305,l),
(416,666,l),
(580,565,l),
(507,382,l),
(413,364,l),
(267,424,l),
(202,521,l),
(187,609,l),
(128,633,l),
(128,464,l),
(202,411,l),
(422,321,l),
(542,231,l),
(588,61,l),
(349,286,l),
(98,385,l),
(40,551,l),
(71,666,l),
(233,676,l),
(289,509,l),
(422,431,l),
(512,512,l),
(453,568,l),
(284,266,l),
(151,220,l),
(73,12,l),
(26,109,l),
(87,248,l)
);
}
);
width = 600;
},
{
layerId = m002;
shapes = (
{
closed = 1;
nodes = (
(72,424,l),
(416,666,l),
(580,565,l),
(507,382,l),
(413,364,l),
(345,339,l),
(280,436,l),
(265,524,l),
(206,548,l),
(206,379,l),
(280,326,l),
(396,267,l),
(359,122,l),
(221,14,l),
(308,248,l),
(176,300,l),
(118,466,l),
(149,581,l),
(311,591,l),
(367,424,l),
(422,431,l),
(512,512,l),
(453,568,l),
(131,385,l),
(151,220,l),
(73,12,l),
(26,109,l),
(87,248,l)
);
}
);
width = 600;
},
{
layerId = m003;
shapes = (
{
closed = 1;
nodes = (
(55,626,l),
(416,666,l),
(560,611,l),
(576,428,l),
(482,410,l),
(408,366,l),
(379,384,l),
(332,435,l),
(272,417,l),
(302,316,l),
(376,263,l),
(413,150,l),
(193,10,l),
(96,56,l),
(339,162,l),
(310,237,l),
(229,314,l),
(197,469,l),
(351,502,l),
(430,451,l),
(513,477,l),
(492,558,l),
(433,614,l),
(114,587,l),
(134,422,l),
(56,214,l),
(9,311,l),
(70,450,l)
);
}
);
width = 600;
},
{
layerId = m004;
shapes = (
{
closed = 1;
nodes = (
(155,688,l),
(413,682,l),
(557,627,l),
(573,444,l),
(523,398,l),
(503,336,l),
(441,322,l),
(379,311,l),
(329,277,l),
(347,176,l),
(293,96,l),
(246,15,l),
(77,0,l),
(16,88,l),
(188,62,l),
(223,107,l),
(283,211,l),
(250,317,l),
(351,359,l),
(461,409,l),
(510,493,l),
(489,574,l),
(430,630,l),
(214,649,l),
(121,552,l),
(84,363,l),
(37,460,l),
(57,580,l)
);
}
);
width = 600;
},
{
layerId = m005;
shapes = (
{
closed = 1;
nodes = (
(155,688,l),
(413,682,l),
(557,627,l),
(598,363,l),
(575,298,l),
(559,180,l),
(541,122,l),
(479,111,l),
(429,77,l),
(383,11,l),
(238,70,l),
(149,42,l),
(14,214,l),
(28,320,l),
(138,185,l),
(194,125,l),
(306,80,l),
(350,117,l),
(451,159,l),
(513,309,l),
(535,412,l),
(489,574,l),
(430,630,l),
(214,649,l),
(121,552,l),
(84,363,l),
(37,460,l),
(57,580,l)
);
}
);
width = 600;
},
{
layerId = m006;
shapes = (
{
closed = 1;
nodes = (
(196,704,l),
(413,682,l),
(557,627,l),
(598,363,l),
(527,175,l),
(440,97,l),
(422,39,l),
(340,0,l),
(242,0,l),
(125,90,l),
(62,278,l),
(10,356,l),
(137,534,l),
(242,550,l),
(144,407,l),
(102,336,l),
(133,245,l),
(196,159,l),
(332,76,l),
(465,186,l),
(535,412,l),
(489,574,l),
(430,630,l),
(255,665,l),
(162,568,l),
(125,379,l),
(78,476,l),
(98,596,l)
);
}
);
width = 600;
},
{
layerId = m007;
shapes = (
{
closed = 1;
nodes = (
(249,702,l),
(466,680,l),
(591,485,l),
(598,260,l),
(510,77,l),
(407,22,l),
(325,11,l),
(236,-7,l),
(141,16,l),
(49,131,l),
(0,337,l),
(50,460,l),
(350,336,l),
(363,223,l),
(251,304,l),
(78,382,l),
(112,259,l),
(113,195,l),
(246,68,l),
(453,102,l),
(535,309,l),
(523,432,l),
(483,594,l),
(308,663,l),
(162,568,l),
(125,379,l),
(78,476,l),
(98,596,l)
);
}
);
width = 600;
},
{
layerId = m008;
shapes = (
{
closed = 1;
nodes = (
(249,702,l),
(488,657,l),
(591,485,l),
(598,260,l),
(441,54,l),
(326,8,l),
(244,-3,l),
(125,64,l),
(54,163,l),
(27,282,l),
(78,432,l),
(243,395,l),
(623,20,l),
(559,-91,l),
(376,175,l),
(247,306,l),
(114,354,l),
(91,292,l),
(142,159,l),
(280,68,l),
(529,263,l),
(539,421,l),
(480,551,l),
(330,626,l),
(162,568,l),
(65,313,l),
(22,385,l),
(98,596,l)
);
}
);
width = 600;
}
);
unicode = 81;
},
{
glyphname = R;
lastChange = "2024-03-08 04:59:07 +0000";
layers = (
{
layerId = m01;
shapes = (
{
closed = 1;
nodes = (
(260,210,l),
(299,379,l),
(276,554,l),
(398,700,l),
(565,623,l),
(555,431,l),
(509,356,l),
(235,356,l),
(179,401,l),
(152,457,l),
(93,457,l),
(111,353,l),
(235,308,l),
(454,327,l),
(565,144,l),
(535,51,l),
(424,256,l),
(224,242,l),
(48,333,l),
(36,499,l),
(156,523,l),
(229,422,l),
(461,404,l),
(509,530,l),
(424,623,l),
(349,526,l),
(370,353,l),
(319,165,l),
(186,119,l),
(143,-10,l),
(97,51,l),
(122,147,l)
);
}
);
width = 600;
},
{
layerId = m002;
shapes = (
{
closed = 1;
nodes = (
(147,229,l),
(135,383,l),
(87,554,l),
(209,700,l),
(565,623,l),
(555,431,l),
(509,356,l),
(235,356,l),
(179,401,l),
(152,457,l),
(93,457,l),
(111,353,l),
(235,308,l),
(454,327,l),
(565,144,l),
(535,51,l),
(424,256,l),
(224,242,l),
(48,333,l),
(36,499,l),
(156,523,l),
(229,422,l),
(461,404,l),
(509,530,l),
(235,623,l),
(160,526,l),
(206,357,l),
(206,184,l),
(186,119,l),
(143,-10,l),
(97,51,l),
(122,147,l)
);
}
);
width = 600;
},
{
layerId = m003;
shapes = (
{
closed = 1;
nodes = (
(69,229,l),
(57,383,l),
(46,554,l),
(168,700,l),
(565,623,l),
(555,431,l),
(509,356,l),
(235,356,l),
(179,401,l),
(143,426,l),
(93,366,l),
(223,293,l),
(347,248,l),
(421,183,l),
(532,0,l),
(502,-93,l),
(391,112,l),
(336,182,l),
(160,208,l),
(36,408,l),
(156,487,l),
(229,422,l),
(461,404,l),
(509,530,l),
(194,623,l),
(119,526,l),
(128,357,l),
(128,184,l),
(133,119,l),
(143,-10,l),
(97,51,l),
(78,127,l)
);
}
);
width = 600;
},
{
layerId = m004;
shapes = (
{
closed = 1;
nodes = (
(69,229,l),
(57,383,l),
(46,554,l),
(129,700,l),
(406,680,l),
(538,464,l),
(514,379,l),
(235,356,l),
(179,401,l),
(160,340,l),
(216,289,l),
(311,227,l),
(432,150,l),
(459,55,l),
(532,0,l),
(502,-93,l),
(396,12,l),
(387,100,l),
(253,217,l),
(88,316,l),
(156,487,l),
(229,422,l),
(454,430,l),
(377,575,l),
(155,623,l),
(119,526,l),
(128,357,l),
(143,172,l),
(120,95,l),
(143,-10,l),
(65,35,l),
(46,100,l)
);
}
);
width = 600;
},
{
layerId = m005;
shapes = (
{
closed = 1;
nodes = (
(0,244,l),
(57,383,l),
(46,554,l),
(129,700,l),
(406,680,l),
(507,515,l),
(483,430,l),
(361,330,l),
(260,358,l),
(218,347,l),
(239,307,l),
(311,227,l),
(402,173,l),
(429,78,l),
(502,23,l),
(423,-34,l),
(366,35,l),
(357,123,l),
(237,187,l),
(123,305,l),
(214,426,l),
(355,396,l),
(423,481,l),
(346,626,l),
(155,623,l),
(119,526,l),
(128,357,l),
(74,187,l),
(120,95,l),
(143,-10,l),
(65,35,l),
(46,100,l)
);
}
);
width = 600;
},
{
layerId = m006;
shapes = (
{
closed = 1;
nodes = (
(0,244,l),
(57,383,l),
(46,554,l),
(129,700,l),
(445,680,l),
(546,515,l),
(522,430,l),
(400,330,l),
(260,358,l),
(218,347,l),
(218,307,l),
(311,282,l),
(402,228,l),
(429,133,l),
(502,78,l),
(423,21,l),
(366,90,l),
(357,178,l),
(143,264,l),
(117,407,l),
(214,426,l),
(394,396,l),
(462,481,l),
(385,626,l),
(155,623,l),
(119,526,l),
(128,357,l),
(74,187,l),
(120,95,l),
(143,-10,l),
(46,0,l),
(27,100,l)
);
}
);
width = 600;
},
{
layerId = m007;
shapes = (
{
closed = 1;
nodes = (
(34,244,l),
(14,383,l),
(20,528,l),
(105,669,l),
(380,700,l),
(558,559,l),
(534,474,l),
(412,374,l),
(331,347,l),
(167,371,l),
(167,321,l),
(293,244,l),
(338,187,l),
(429,133,l),
(502,78,l),
(423,21,l),
(366,90,l),
(293,137,l),
(116,278,l),
(90,421,l),
(285,415,l),
(406,440,l),
(474,525,l),
(320,646,l),
(131,592,l),
(93,500,l),
(85,357,l),
(108,187,l),
(120,95,l),
(143,-10,l),
(46,0,l),
(27,100,l)
);
}
);
width = 600;
},
{
layerId = m008;
shapes = (
{
closed = 1;
nodes = (
(64,254,l),
(44,393,l),
(50,538,l),
(90,691,l),
(380,700,l),
(491,610,l),
(499,500,l),
(433,427,l),
(347,363,l),
(200,390,l),
(238,350,l),
(419,318,l),
(421,171,l),
(517,103,l),
(576,18,l),
(421,43,l),
(347,134,l),
(317,262,l),
(142,321,l),
(90,463,l),
(303,432,l),
(400,493,l),
(407,576,l),
(320,646,l),
(145,621,l),
(123,510,l),
(130,367,l),
(142,212,l),
(180,133,l),
(144,58,l),
(67,-1,l),
(57,110,l)
);
}
);
width = 600;
}
);
unicode = 82;
},
{
glyphname = S;
lastChange = "2024-03-08 05:15:20 +0000";
layers = (
{
layerId = m01;
shapes = (
{
closed = 1;
nodes = (
(202,236,l),
(299,379,l),
(316,598,l),
(454,700,l),
(565,598,l),
(565,454,l),
(411,333,l),
(211,405,l),
(200,530,l),
(111,609,l),
(111,474,l),
(168,406,l),
(333,300,l),
(496,331,l),
(541,144,l),
(479,74,l),
(454,256,l),
(336,235,l),
(150,328,l),
(48,454,l),
(48,641,l),
(147,677,l),
(224,617,l),
(265,454,l),
(432,406,l),
(514,524,l),
(460,620,l),
(384,578,l),
(370,353,l),
(261,191,l),
(186,119,l),
(122,18,l),
(27,0,l),
(122,147,l)
);
}
);
width = 600;
},
{
layerId = m002;
shapes = (
{
closed = 1;
nodes = (
(262,174,l),
(308,284,l),
(225,387,l),
(316,571,l),
(446,641,l),
(570,524,l),
(496,395,l),
(270,367,l),
(219,453,l),
(149,472,l),
(130,414,l),
(196,309,l),
(333,294,l),
(456,235,l),
(541,144,l),
(533,46,l),
(427,191,l),
(336,235,l),
(178,260,l),
(67,394,l),
(86,504,l),
(185,540,l),
(292,422,l),
(446,436,l),
(522,516,l),
(395,567,l),
(322,491,l),
(293,367,l),
(379,258,l),
(292,106,l),
(191,80,l),
(122,18,l),
(27,0,l),
(149,135,l)
);
}
);
width = 600;
},
{
layerId = m003;
shapes = (
{
closed = 1;
nodes = (
(212,151,l),
(235,222,l),
(202,356,l),
(324,544,l),
(342,700,l),
(511,679,l),
(528,532,l),
(463,405,l),
(314,427,l),
(244,446,l),
(180,419,l),
(180,325,l),
(256,324,l),
(378,304,l),
(436,271,l),
(428,173,l),
(349,260,l),
(259,265,l),
(140,260,l),
(108,441,l),
(181,478,l),
(280,514,l),
(436,449,l),
(463,535,l),
(477,644,l),
(378,642,l),
(362,507,l),
(270,336,l),
(293,217,l),
(264,119,l),
(191,80,l),
(122,18,l),
(27,0,l),
(149,135,l)
);
}
);
width = 600;
},
{
layerId = m004;
shapes = (
{
closed = 1;
nodes = (
(290,74,l),
(312,152,l),
(279,286,l),
(276,461,l),
(296,654,l),
(356,700,l),
(486,630,l),
(552,451,l),
(470,402,l),
(400,421,l),
(336,394,l),
(243,372,l),
(168,356,l),
(249,263,l),
(333,222,l),
(317,135,l),
(199,247,l),
(114,360,l),
(173,417,l),
(264,416,l),
(337,453,l),
(447,466,l),
(486,483,l),
(447,578,l),
(365,652,l),
(332,596,l),
(314,424,l),
(347,266,l),
(370,147,l),
(341,49,l),
(160,-23,l),
(33,25,l),
(17,119,l),
(133,25,l)
);
}
);
width = 600;
},
{
layerId = m005;
shapes = (
{
closed = 1;
nodes = (
(278,102,l),
(329,166,l),
(279,286,l),
(276,461,l),
(296,654,l),
(356,700,l),
(486,630,l),
(583,500,l),
(548,404,l),
(478,423,l),
(414,396,l),
(341,368,l),
(201,418,l),
(105,426,l),
(35,383,l),
(-26,411,l),
(56,445,l),
(161,454,l),
(243,463,l),
(362,412,l),
(415,455,l),
(525,468,l),
(517,532,l),
(447,578,l),
(365,652,l),
(332,596,l),
(314,424,l),
(347,266,l),
(380,138,l),
(315,59,l),
(120,64,l),
(22,158,l),
(44,251,l),
(114,119,l)
);
}
);
width = 600;
},
{
layerId = m006;
shapes = (
{
closed = 1;
nodes = (
(154,55,l),
(245,109,l),
(318,210,l),
(263,310,l),
(131,458,l),
(171,570,l),
(337,704,l),
(488,646,l),
(548,492,l),
(548,405,l),
(484,378,l),
(411,350,l),
(352,373,l),
(256,411,l),
(186,368,l),
(125,396,l),
(207,430,l),
(312,439,l),
(411,398,l),
(467,420,l),
(495,486,l),
(446,594,l),
(415,638,l),
(332,639,l),
(226,527,l),
(245,411,l),
(341,286,l),
(386,190,l),
(296,81,l),
(176,-11,l),
(65,51,l),
(22,158,l),
(44,251,l),
(114,119,l)
);
}
);
width = 600;
},
{
layerId = m007;
shapes = (
{
closed = 1;
nodes = (
(154,55,l),
(286,54,l),
(398,154,l),
(343,254,l),
(129,283,l),
(72,345,l),
(84,558,l),
(180,628,l),
(321,713,l),
(407,729,l),
(444,671,l),
(485,604,l),
(502,569,l),
(482,468,l),
(536,407,l),
(519,342,l),
(472,416,l),
(444,518,l),
(438,595,l),
(406,647,l),
(336,663,l),
(238,595,l),
(201,558,l),
(129,510,l),
(141,357,l),
(335,315,l),
(421,230,l),
(466,134,l),
(337,26,l),
(176,-11,l),
(65,51,l),
(22,158,l),
(44,251,l),
(114,119,l)
);
}
);
width = 600;
},
{
layerId = m008;
shapes = (
{
closed = 1;
nodes = (
(178,55,l),
(337,22,l),
(449,122,l),
(414,282,l),
(326,303,l),
(191,309,l),
(96,421,l),
(91,564,l),
(137,643,l),
(211,689,l),
(321,701,l),
(390,675,l),
(470,645,l),
(504,575,l),
(523,489,l),
(512,422,l),
(461,474,l),
(441,579,l),
(344,628,l),
(240,613,l),
(169,602,l),
(158,554,l),
(137,506,l),
(181,408,l),
(338,377,l),
(406,343,l),
(492,258,l),
(517,102,l),
(388,-6,l),
(200,-11,l),
(89,51,l),
(46,158,l),
(68,251,l),
(138,119,l)
);
}
);
width = 600;
}
);
unicode = 83;
},
{
glyphname = T;
lastChange = "2024-03-08 19:49:56 +0000";
layers = (
{
layerId = m01;
shapes = (
{
closed = 1;
nodes = (
(211,273,l),
(315,639,l),
(464,659,l),
(595,639,l),
(595,500,l),
(538,447,l),
(450,391,l),
(296,475,l),
(104,528,l),
(169,350,l),
(406,365,l),
(514,144,l),
(479,25,l),
(380,293,l),
(150,293,l),
(66,410,l),
(23,528,l),
(97,595,l),
(230,557,l),
(413,456,l),
(545,510,l),
(545,601,l),
(375,601,l),
(305,266,l),
(156,167,l),
(193,48,l),
(90,84,l),
(63,192,l)
);
}
);
width = 600;
},
{
layerId = m002;
shapes = (
{
closed = 1;
nodes = (
(211,273,l),
(315,639,l),
(390,705,l),
(521,685,l),
(595,500,l),
(538,447,l),
(450,391,l),
(296,475,l),
(159,544,l),
(119,508,l),
(149,406,l),
(269,332,l),
(234,283,l),
(119,345,l),
(72,445,l),
(48,508,l),
(110,591,l),
(176,605,l),
(230,557,l),
(413,456,l),
(545,510,l),
(471,647,l),
(375,601,l),
(269,254,l),
(156,167,l),
(193,48,l),
(90,84,l),
(63,192,l)
);
}
);
width = 600;
},
{
layerId = m003;
shapes = (
{
closed = 1;
nodes = (
(287,267,l),
(249,492,l),
(255,603,l),
(374,692,l),
(532,638,l),
(556,562,l),
(456,500,l),
(335,441,l),
(141,487,l),
(141,469,l),
(196,398,l),
(353,361,l),
(314,306,l),
(181,371,l),
(125,415,l),
(97,504,l),
(111,532,l),
(187,515,l),
(335,503,l),
(491,572,l),
(456,638,l),
(353,620,l),
(299,566,l),
(353,246,l),
(257,141,l),
(141,18,l),
(108,72,l),
(208,149,l)
);
}
);
width = 600;
},
{
layerId = m004;
shapes = (
{
closed = 1;
nodes = (
(309,259,l),
(249,492,l),
(127,606,l),
(87,699,l),
(254,700,l),
(322,590,l),
(456,500,l),
(335,441,l),
(285,434,l),
(232,414,l),
(250,369,l),
(349,369,l),
(310,314,l),
(235,317,l),
(183,394,l),
(197,462,l),
(232,479,l),
(335,495,l),
(370,500,l),
(266,597,l),
(245,666,l),
(158,654,l),
(272,542,l),
(353,246,l),
(317,168,l),
(290,1,l),
(232,27,l),
(272,147,l)
);
}
);
width = 600;
},
{
layerId = m005;
shapes = (
{
closed = 1;
nodes = (
(309,259,l),
(249,492,l),
(66,494,l),
(26,587,l),
(98,693,l),
(260,700,l),
(396,647,l),
(412,587,l),
(285,434,l),
(232,414,l),
(250,369,l),
(349,369,l),
(310,314,l),
(235,317,l),
(183,394,l),
(197,462,l),
(264,456,l),
(374,587,l),
(358,626,l),
(216,669,l),
(114,637,l),
(84,531,l),
(272,542,l),
(353,246,l),
(317,168,l),
(325,0,l),
(267,26,l),
(272,147,l)
);
}
);
width = 600;
},
{
layerId = m006;
shapes = (
{
closed = 1;
nodes = (
(276,239,l),
(259,364,l),
(244,472,l),
(35,503,l),
(107,609,l),
(260,700,l),
(390,675,l),
(444,599,l),
(509,466,l),
(452,459,l),
(398,461,l),
(294,437,l),
(198,426,l),
(274,475,l),
(342,505,l),
(427,508,l),
(465,510,l),
(406,599,l),
(352,654,l),
(232,647,l),
(123,553,l),
(262,509,l),
(282,414,l),
(320,226,l),
(317,168,l),
(325,0,l),
(267,26,l),
(272,147,l)
);
}
);
width = 600;
},
{
layerId = m007;
shapes = (
{
closed = 1;
nodes = (
(276,239,l),
(276,364,l),
(259,512,l),
(63,555,l),
(76,661,l),
(260,700,l),
(408,687,l),
(540,700,l),
(567,558,l),
(510,551,l),
(456,553,l),
(294,472,l),
(205,524,l),
(302,524,l),
(400,597,l),
(485,600,l),
(523,602,l),
(497,652,l),
(352,654,l),
(165,647,l),
(135,591,l),
(359,533,l),
(331,414,l),
(348,226,l),
(345,168,l),
(325,0,l),
(267,26,l),
(272,147,l)
);
}
);
width = 600;
},
{
layerId = m008;
shapes = (
{
closed = 1;
nodes = (
(276,239,l),
(230,387,l),
(255,584,l),
(18,567,l),
(56,686,l),
(260,700,l),
(408,687,l),
(540,700,l),
(552,598,l),
(473,588,l),
(385,594,l),
(201,513,l),
(219,558,l),
(296,606,l),
(337,646,l),
(433,644,l),
(497,647,l),
(497,672,l),
(352,654,l),
(177,645,l),
(97,618,l),
(305,636,l),
(305,414,l),
(348,226,l),
(325,150,l),
(349,6,l),
(267,26,l),
(246,147,l)
);
}
);
width = 600;
}
);
unicode = 84;
},
{
glyphname = U;
lastChange = "2024-03-08 15:02:10 +0000";
layers = (
{
layerId = m01;
shapes = (
{
closed = 1;
nodes = (
(112,150,l),
(272,206,l),
(431,410,l),
(512,471,l),
(445,543,l),
(258,333,l),
(60,410,l),
(56,573,l),
(178,662,l),
(327,553,l),
(445,274,l),
(457,166,l),
(527,41,l),
(407,106,l),
(353,379,l),
(211,582,l),
(114,503,l),
(221,389,l),
(420,612,l),
(549,553,l),
(577,411,l),
(477,380,l),
(238,119,l),
(56,105,l),
(21,274,l)
);
}
);
width = 600;
},
{
layerId = m002;
shapes = (
{
closed = 1;
nodes = (
(112,249,l),
(156,162,l),
(246,175,l),
(327,236,l),
(464,364,l),
(258,333,l),
(159,429,l),
(155,592,l),
(277,681,l),
(426,572,l),
(445,274,l),
(457,166,l),
(527,41,l),
(407,106,l),
(393,377,l),
(335,601,l),
(213,522,l),
(276,417,l),
(439,433,l),
(568,374,l),
(392,176,l),
(292,145,l),
(122,75,l),
(56,204,l),
(21,373,l)
);
}
);
width = 600;
},
{
layerId = m003;
shapes = (
{
closed = 1;
nodes = (
(93,409,l),
(137,322,l),
(219,141,l),
(275,177,l),
(409,233,l),
(258,333,l),
(159,429,l),
(155,592,l),
(277,681,l),
(426,572,l),
(426,392,l),
(530,354,l),
(587,429,l),
(566,288,l),
(359,346,l),
(335,601,l),
(213,522,l),
(276,417,l),
(475,269,l),
(514,208,l),
(340,117,l),
(165,53,l),
(103,235,l),
(37,364,l),
(2,533,l)
);
}
);
width = 600;
},
{
layerId = m004;
shapes = (
{
closed = 1;
nodes = (
(113,411,l),
(108,314,l),
(123,162,l),
(195,96,l),
(367,92,l),
(296,185,l),
(197,281,l),
(193,444,l),
(258,490,l),
(385,449,l),
(509,349,l),
(509,570,l),
(566,645,l),
(585,500,l),
(566,223,l),
(328,424,l),
(251,374,l),
(314,269,l),
(433,128,l),
(472,67,l),
(244,33,l),
(69,74,l),
(36,255,l),
(42,400,l),
(95,564,l)
);
}
);
width = 600;
},
{
layerId = m005;
shapes = (
{
closed = 1;
nodes = (
(88,528,l),
(83,431,l),
(98,279,l),
(142,136,l),
(258,89,l),
(340,143,l),
(290,206,l),
(286,369,l),
(351,415,l),
(478,374,l),
(515,432,l),
(509,570,l),
(566,645,l),
(585,500,l),
(572,306,l),
(421,349,l),
(344,299,l),
(403,205,l),
(475,86,l),
(353,45,l),
(98,33,l),
(44,191,l),
(11,372,l),
(17,517,l),
(70,681,l)
);
}
);
width = 600;
},
{
layerId = m006;
shapes = (
{
closed = 1;
nodes = (
(88,528,l),
(83,431,l),
(78,343,l),
(128,264,l),
(152,120,l),
(276,88,l),
(383,115,l),
(426,250,l),
(491,296,l),
(509,402,l),
(498,494,l),
(492,632,l),
(549,707,l),
(568,562,l),
(572,306,l),
(561,230,l),
(514,180,l),
(484,120,l),
(429,70,l),
(226,33,l),
(54,82,l),
(32,230,l),
(11,372,l),
(17,517,l),
(70,681,l)
);
}
);
width = 600;
},
{
layerId = m007;
shapes = (
{
closed = 1;
nodes = (
(120,606,l),
(83,500,l),
(78,343,l),
(148,280,l),
(148,157,l),
(276,51,l),
(383,78,l),
(466,212,l),
(491,296,l),
(446,402,l),
(472,530,l),
(462,647,l),
(549,707,l),
(549,562,l),
(534,420,l),
(561,230,l),
(514,180,l),
(484,120,l),
(429,33,l),
(226,-4,l),
(78,115,l),
(32,230,l),
(32,519,l),
(27,644,l),
(120,700,l)
);
}
);
width = 600;
},
{
layerId = m008;
shapes = (
{
closed = 1;
nodes = (
(153,606,l),
(116,500,l),
(113,402,l),
(181,280,l),
(172,182,l),
(238,85,l),
(374,103,l),
(457,149,l),
(491,296,l),
(446,402,l),
(472,530,l),
(457,700,l),
(549,664,l),
(549,562,l),
(534,420,l),
(565,249,l),
(534,180,l),
(517,88,l),
(408,0,l),
(216,-4,l),
(111,115,l),
(42,315,l),
(65,519,l),
(60,644,l),
(153,700,l)
);
}
);
width = 600;
}
);
unicode = 85;
},
{
glyphname = V;
lastChange = "2024-03-08 19:47:14 +0000";
layers = (
{
layerId = m01;
shapes = (
{
closed = 1;
nodes = (
(290,331,l),
(453,449,l),
(473,498,l),
(448,510,l),
(265,344,l),
(80,423,l),
(56,548,l),
(245,658,l),
(328,385,l),
(365,262,l),
(555,27,l),
(482,27,l),
(330,267,l),
(187,587,l),
(130,517,l),
(247,392,l),
(448,595,l),
(529,491,l),
(507,361,l),
(161,280,l),
(20,79,l),
(80,304,l)
);
}
);
width = 600;
},
{
layerId = m002;
shapes = (
{
closed = 1;
nodes = (
(229,187,l),
(453,449,l),
(473,498,l),
(448,510,l),
(265,344,l),
(80,423,l),
(56,548,l),
(302,548,l),
(338,334,l),
(218,288,l),
(-3,82,l),
(-8,155,l),
(286,386,l),
(244,477,l),
(130,517,l),
(247,392,l),
(448,595,l),
(529,491,l),
(507,361,l),
(302,207,l),
(562,91,l),
(330,107,l)
);
}
);
width = 600;
},
{
layerId = m003;
shapes = (
{
closed = 1;
nodes = (
(423,196,l),
(409,285,l),
(498,387,l),
(473,399,l),
(265,344,l),
(126,541,l),
(181,656,l),
(379,510,l),
(338,334,l),
(218,268,l),
(42,344,l),
(37,417,l),
(226,334,l),
(290,487,l),
(222,587,l),
(247,392,l),
(473,484,l),
(554,380,l),
(495,320,l),
(467,259,l),
(630,305,l),
(552,200,l)
);
}
);
width = 600;
},
{
layerId = m004;
shapes = (
{
closed = 1;
nodes = (
(558,196,l),
(498,181,l),
(405,269,l),
(327,325,l),
(171,371,l),
(202,527,l),
(290,576,l),
(401,494,l),
(252,193,l),
(83,143,l),
(8,500,l),
(50,572,l),
(125,224,l),
(226,244,l),
(309,529,l),
(233,408,l),
(327,408,l),
(506,244,l),
(490,322,l),
(516,371,l),
(529,467,l),
(580,408,l)
);
}
);
width = 600;
},
{
layerId = m005;
shapes = (
{
closed = 1;
nodes = (
(536,379,l),
(476,364,l),
(484,253,l),
(445,161,l),
(296,104,l),
(167,214,l),
(206,336,l),
(281,437,l),
(378,349,l),
(37,338,l),
(73,622,l),
(115,694,l),
(114,385,l),
(265,364,l),
(302,365,l),
(234,192,l),
(419,263,l),
(484,427,l),
(468,505,l),
(494,554,l),
(507,650,l),
(558,591,l)
);
}
);
width = 600;
},
{
layerId = m006;
shapes = (
{
closed = 1;
nodes = (
(536,379,l),
(492,333,l),
(484,253,l),
(445,161,l),
(418,0,l),
(289,110,l),
(255,161,l),
(259,264,l),
(238,323,l),
(101,404,l),
(54,658,l),
(115,694,l),
(178,451,l),
(279,346,l),
(311,306,l),
(356,88,l),
(419,263,l),
(484,427,l),
(468,564,l),
(494,613,l),
(507,709,l),
(565,679,l)
);
}
);
width = 600;
},
{
layerId = m007;
shapes = (
{
closed = 1;
nodes = (
(536,379,l),
(536,301,l),
(528,221,l),
(489,129,l),
(391,27,l),
(335,0,l),
(181,138,l),
(149,241,l),
(128,300,l),
(78,423,l),
(17,664,l),
(78,700,l),
(155,470,l),
(203,365,l),
(288,180,l),
(376,98,l),
(463,231,l),
(484,427,l),
(468,564,l),
(494,613,l),
(507,709,l),
(565,679,l)
);
}
);
width = 600;
},
{
layerId = m008;
shapes = (
{
closed = 1;
nodes = (
(492,379,l),
(492,277,l),
(450,231,l),
(429,144,l),
(376,26,l),
(335,0,l),
(199,176,l),
(199,271,l),
(149,319,l),
(46,470,l),
(16,705,l),
(78,700,l),
(132,470,l),
(243,345,l),
(254,216,l),
(347,98,l),
(376,231,l),
(443,418,l),
(444,584,l),
(470,633,l),
(507,709,l),
(565,679,l)
);
}
);
width = 600;
}
);
unicode = 86;
},
{
glyphname = W;
lastChange = "2024-03-08 17:59:23 +0000";
layers = (
{
layerId = m01;
shapes = (
{
closed = 1;
nodes = (
(199,214,l),
(273,372,l),
(463,486,l),
(500,542,l),
(410,524,l),
(190,404,l),
(60,451,l),
(59,586,l),
(153,655,l),
(311,646,l),
(452,263,l),
(531,222,l),
(479,56,l),
(428,172,l),
(314,562,l),
(162,613,l),
(100,500,l),
(212,481,l),
(372,565,l),
(452,620,l),
(561,562,l),
(537,434,l),
(311,284,l),
(179,107,l),
(49,97,l)
);
}
);
width = 600;
},
{
layerId = m002;
shapes = (
{
closed = 1;
nodes = (
(163,229,l),
(230,165,l),
(331,324,l),
(368,380,l),
(278,362,l),
(119,380,l),
(50,519,l),
(186,609,l),
(280,678,l),
(452,576,l),
(480,116,l),
(517,185,l),
(579,111,l),
(437,43,l),
(405,519,l),
(289,636,l),
(130,500,l),
(163,456,l),
(240,403,l),
(320,458,l),
(429,400,l),
(405,272,l),
(268,77,l),
(137,141,l),
(50,239,l)
);
}
);
width = 600;
},
{
layerId = m003;
shapes = (
{
closed = 1;
nodes = (
(110,236,l),
(102,116,l),
(246,119,l),
(356,169,l),
(286,229,l),
(157,319,l),
(120,402,l),
(227,513,l),
(338,530,l),
(408,353,l),
(512,343,l),
(489,426,l),
(552,443,l),
(570,302,l),
(372,304,l),
(316,485,l),
(200,383,l),
(244,331,l),
(294,284,l),
(387,256,l),
(409,134,l),
(294,73,l),
(56,60,l),
(34,224,l),
(48,331,l)
);
}
);
width = 600;
},
{
layerId = m004;
shapes = (
{
closed = 1;
nodes = (
(101,497,l),
(93,377,l),
(176,87,l),
(255,35,l),
(255,210,l),
(208,316,l),
(171,399,l),
(324,399,l),
(435,416,l),
(489,353,l),
(489,471,l),
(489,585,l),
(552,602,l),
(570,461,l),
(520,266,l),
(413,371,l),
(269,359,l),
(259,318,l),
(294,284,l),
(286,122,l),
(308,0,l),
(134,35,l),
(47,321,l),
(25,485,l),
(39,592,l)
);
}
);
width = 600;
},
{
layerId = m005;
shapes = (
{
closed = 1;
nodes = (
(109,612,l),
(101,492,l),
(64,341,l),
(114,250,l),
(171,154,l),
(208,231,l),
(224,314,l),
(260,366,l),
(398,192,l),
(452,129,l),
(489,471,l),
(489,585,l),
(552,602,l),
(570,461,l),
(483,42,l),
(376,147,l),
(269,274,l),
(259,233,l),
(243,127,l),
(171,26,l),
(93,117,l),
(22,289,l),
(55,436,l),
(33,600,l),
(47,707,l)
);
}
);
width = 600;
},
{
layerId = m006;
shapes = (
{
closed = 1;
nodes = (
(109,612,l),
(101,492,l),
(90,341,l),
(114,250,l),
(193,128,l),
(226,272,l),
(326,331,l),
(387,274,l),
(443,127,l),
(493,365,l),
(443,574,l),
(443,688,l),
(506,705,l),
(524,564,l),
(524,278,l),
(483,12,l),
(365,172,l),
(309,250,l),
(281,91,l),
(193,0,l),
(93,117,l),
(22,289,l),
(55,436,l),
(33,600,l),
(47,707,l)
);
}
);
width = 600;
},
{
layerId = m007;
shapes = (
{
closed = 1;
nodes = (
(120,677,l),
(101,492,l),
(90,341,l),
(114,189,l),
(174,119,l),
(236,316,l),
(353,331,l),
(397,203,l),
(462,143,l),
(462,369,l),
(480,574,l),
(480,688,l),
(543,705,l),
(561,564,l),
(524,278,l),
(483,12,l),
(410,37,l),
(290,255,l),
(257,91,l),
(193,0,l),
(66,99,l),
(22,289,l),
(40,436,l),
(33,600,l),
(47,707,l)
);
}
);
width = 600;
},
{
layerId = m008;
shapes = (
{
closed = 1;
nodes = (
(120,677,l),
(129,492,l),
(114,341,l),
(114,189,l),
(174,119,l),
(259,331,l),
(353,331,l),
(397,203,l),
(462,143,l),
(495,356,l),
(480,574,l),
(480,688,l),
(543,705,l),
(561,564,l),
(571,243,l),
(502,-1,l),
(419,25,l),
(317,255,l),
(258,52,l),
(193,0,l),
(93,52,l),
(22,289,l),
(57,447,l),
(33,600,l),
(47,707,l)
);
}
);
width = 600;
}
);
unicode = 87;
},
{
glyphname = X;
lastChange = "2024-03-08 19:50:15 +0000";
layers = (
{
layerId = m01;
shapes = (
{
closed = 1;
nodes = (
(125,134,l),
(307,335,l),
(453,467,l),
(500,509,l),
(430,544,l),
(212,354,l),
(30,382,l),
(30,520,l),
(116,608,l),
(220,644,l),
(456,260,l),
(524,7,l),
(423,114,l),
(435,198,l),
(226,562,l),
(122,567,l),
(90,457,l),
(208,417,l),
(372,566,l),
(453,605,l),
(539,572,l),
(525,427,l),
(307,255,l),
(93,22,l),
(48,188,l)
);
}
);
width = 600;
},
{
layerId = m002;
shapes = (
{
closed = 1;
nodes = (
(96,251,l),
(133,80,l),
(198,159,l),
(245,201,l),
(354,298,l),
(212,354,l),
(30,382,l),
(30,520,l),
(116,608,l),
(220,644,l),
(456,260,l),
(524,7,l),
(423,114,l),
(435,198,l),
(226,562,l),
(122,567,l),
(90,457,l),
(208,417,l),
(372,366,l),
(439,319,l),
(406,279,l),
(270,119,l),
(133,0,l),
(64,139,l),
(19,305,l)
);
}
);
width = 600;
},
{
layerId = m003;
shapes = (
{
closed = 1;
nodes = (
(91,647,l),
(172,486,l),
(238,326,l),
(268,290,l),
(332,297,l),
(384,354,l),
(293,452,l),
(306,509,l),
(392,597,l),
(496,633,l),
(628,285,l),
(524,7,l),
(524,133,l),
(555,254,l),
(502,551,l),
(398,556,l),
(338,482,l),
(380,442,l),
(467,391,l),
(439,319,l),
(406,279,l),
(219,209,l),
(172,406,l),
(59,535,l),
(14,701,l)
);
}
);
width = 600;
},
{
layerId = m004;
shapes = (
{
closed = 1;
nodes = (
(91,647,l),
(152,486,l),
(189,326,l),
(135,144,l),
(189,190,l),
(274,285,l),
(263,418,l),
(277,509,l),
(392,597,l),
(496,570,l),
(496,230,l),
(524,7,l),
(423,112,l),
(423,213,l),
(450,555,l),
(398,556,l),
(314,482,l),
(325,379,l),
(324,285,l),
(296,213,l),
(263,173,l),
(86,63,l),
(140,357,l),
(59,535,l),
(14,701,l)
);
}
);
width = 600;
},
{
layerId = m005;
shapes = (
{
closed = 1;
nodes = (
(104,609,l),
(189,609,l),
(210,400,l),
(129,172,l),
(152,144,l),
(224,302,l),
(263,437,l),
(325,489,l),
(401,626,l),
(471,584,l),
(440,221,l),
(524,7,l),
(423,112,l),
(374,213,l),
(440,561,l),
(405,562,l),
(349,448,l),
(321,364,l),
(274,302,l),
(213,230,l),
(183,107,l),
(76,107,l),
(149,535,l),
(26,623,l),
(14,701,l)
);
}
);
width = 600;
},
{
layerId = m006;
shapes = (
{
closed = 1;
nodes = (
(104,609,l),
(210,535,l),
(200,415,l),
(93,198,l),
(104,163,l),
(281,327,l),
(329,434,l),
(360,564,l),
(500,564,l),
(535,397,l),
(440,221,l),
(549,39,l),
(479,32,l),
(374,213,l),
(504,374,l),
(459,512,l),
(407,512,l),
(370,347,l),
(327,308,l),
(230,219,l),
(118,117,l),
(19,158,l),
(181,481,l),
(26,623,l),
(14,701,l)
);
}
);
width = 600;
},
{
layerId = m007;
shapes = (
{
closed = 1;
nodes = (
(128,609,l),
(241,415,l),
(230,294,l),
(79,106,l),
(90,71,l),
(281,327,l),
(301,424,l),
(431,593,l),
(550,604,l),
(405,361,l),
(440,221,l),
(550,56,l),
(517,-7,l),
(374,213,l),
(340,374,l),
(489,553,l),
(458,553,l),
(322,382,l),
(327,308,l),
(288,193,l),
(104,25,l),
(5,66,l),
(194,382,l),
(26,623,l),
(14,701,l)
);
}
);
width = 600;
},
{
layerId = m008;
shapes = (
{
closed = 1;
nodes = (
(128,609,l),
(267,363,l),
(306,308,l),
(128,146,l),
(115,109,l),
(270,239,l),
(306,516,l),
(421,654,l),
(561,628,l),
(354,327,l),
(409,186,l),
(574,56,l),
(541,-7,l),
(343,178,l),
(317,341,l),
(466,577,l),
(417,577,l),
(348,471,l),
(337,293,l),
(288,193,l),
(67,0,l),
(16,95,l),
(240,314,l),
(26,623,l),
(14,701,l)
);
}
);
width = 600;
}
);
unicode = 88;
},
{
glyphname = Y;
lastChange = "2024-03-08 18:26:55 +0000";
layers = (
{
layerId = m01;
shapes = (
{
closed = 1;
nodes = (
(137,133,l),
(334,313,l),
(447,433,l),
(511,504,l),
(430,544,l),
(212,354,l),
(16,371,l),
(16,558,l),
(116,664,l),
(279,664,l),
(376,469,l),
(481,260,l),
(506,113,l),
(524,7,l),
(423,114,l),
(423,192,l),
(256,613,l),
(125,602,l),
(86,500,l),
(172,450,l),
(372,566,l),
(512,633,l),
(573,520,l),
(556,416,l),
(318,203,l),
(74,22,l),
(61,114,l),
(47,220,l)
);
}
);
width = 600;
},
{
layerId = m002;
shapes = (
{
closed = 1;
nodes = (
(440,55,l),
(173,149,l),
(209,217,l),
(273,288,l),
(256,402,l),
(131,334,l),
(16,371,l),
(16,558,l),
(116,664,l),
(279,664,l),
(376,469,l),
(481,260,l),
(506,113,l),
(524,7,l),
(423,114,l),
(423,233,l),
(256,613,l),
(125,602,l),
(62,498,l),
(74,417,l),
(158,402,l),
(288,477,l),
(335,304,l),
(284,225,l),
(284,160,l),
(385,114,l),
(456,142,l),
(540,108,l)
);
}
);
width = 600;
},
{
layerId = m003;
shapes = (
{
closed = 1;
nodes = (
(577,495,l),
(419,255,l),
(353,220,l),
(291,291,l),
(274,405,l),
(149,337,l),
(34,374,l),
(34,561,l),
(134,667,l),
(297,667,l),
(394,472,l),
(499,263,l),
(524,116,l),
(542,10,l),
(441,117,l),
(441,195,l),
(274,616,l),
(143,605,l),
(104,503,l),
(116,422,l),
(176,405,l),
(306,480,l),
(353,307,l),
(428,362,l),
(472,442,l),
(520,527,l),
(511,597,l),
(587,646,l)
);
}
);
width = 600;
},
{
layerId = m004;
shapes = (
{
closed = 1;
nodes = (
(535,549,l),
(401,252,l),
(335,217,l),
(273,288,l),
(159,458,l),
(71,377,l),
(16,509,l),
(103,660,l),
(256,664,l),
(335,551,l),
(316,452,l),
(354,221,l),
(334,73,l),
(319,-34,l),
(255,99,l),
(278,173,l),
(265,500,l),
(265,602,l),
(173,602,l),
(98,557,l),
(98,445,l),
(212,520,l),
(335,304,l),
(410,359,l),
(430,496,l),
(478,581,l),
(469,651,l),
(545,700,l)
);
}
);
width = 600;
},
{
layerId = m005;
shapes = (
{
closed = 1;
nodes = (
(535,549,l),
(421,332,l),
(314,377,l),
(227,423,l),
(159,458,l),
(77,538,l),
(16,638,l),
(61,663,l),
(194,651,l),
(273,538,l),
(316,452,l),
(354,221,l),
(334,73,l),
(319,-34,l),
(255,99,l),
(278,173,l),
(241,500,l),
(171,589,l),
(113,613,l),
(94,577,l),
(130,537,l),
(171,500,l),
(314,464,l),
(430,403,l),
(459,500,l),
(478,581,l),
(469,651,l),
(545,700,l)
);
}
);
width = 600;
},
{
layerId = m006;
shapes = (
{
closed = 1;
nodes = (
(469,565,l),
(373,394,l),
(318,313,l),
(227,423,l),
(144,456,l),
(77,538,l),
(16,638,l),
(61,663,l),
(194,651,l),
(265,532,l),
(306,465,l),
(354,221,l),
(334,73,l),
(319,-34,l),
(255,78,l),
(321,221,l),
(233,494,l),
(171,589,l),
(113,613,l),
(94,577,l),
(144,557,l),
(185,520,l),
(318,400,l),
(382,465,l),
(411,562,l),
(440,606,l),
(469,651,l),
(545,700,l)
);
}
);
width = 600;
},
{
layerId = m007;
shapes = (
{
closed = 1;
nodes = (
(502,565,l),
(406,394,l),
(318,313,l),
(227,388,l),
(144,456,l),
(77,538,l),
(29,676,l),
(74,701,l),
(207,689,l),
(265,532,l),
(306,465,l),
(354,221,l),
(334,73,l),
(319,-34,l),
(255,23,l),
(286,221,l),
(233,494,l),
(184,627,l),
(126,651,l),
(107,615,l),
(157,595,l),
(185,520,l),
(318,400,l),
(382,465,l),
(411,562,l),
(440,606,l),
(469,676,l),
(545,700,l)
);
}
);
width = 600;
},
{
layerId = m008;
shapes = (
{
closed = 1;
nodes = (
(452,523,l),
(403,394,l),
(315,345,l),
(212,407,l),
(138,487,l),
(53,538,l),
(14,673,l),
(74,701,l),
(233,667,l),
(265,532,l),
(306,465,l),
(374,221,l),
(354,73,l),
(339,-34,l),
(275,23,l),
(306,221,l),
(234,479,l),
(188,597,l),
(126,651,l),
(88,623,l),
(157,595,l),
(163,544,l),
(310,410,l),
(360,479,l),
(390,520,l),
(417,640,l),
(446,689,l),
(545,700,l)
);
}
);
width = 600;
}
);
unicode = 89;
},
{
glyphname = Z;
lastChange = "2024-03-08 18:36:40 +0000";
layers = (
{
layerId = m01;
shapes = (
{
closed = 1;
nodes = (
(148,302,l),
(336,374,l),
(481,456,l),
(518,548,l),
(403,548,l),
(212,373,l),
(28,425,l),
(16,588,l),
(116,700,l),
(322,667,l),
(376,494,l),
(434,292,l),
(556,163,l),
(524,7,l),
(467,163,l),
(372,213,l),
(285,607,l),
(163,632,l),
(83,500,l),
(198,447,l),
(362,598,l),
(487,619,l),
(594,575,l),
(541,409,l),
(127,213,l),
(154,33,l),
(69,61,l),
(47,232,l)
);
}
);
width = 600;
},
{
layerId = m002;
shapes = (
{
closed = 1;
nodes = (
(127,407,l),
(318,466,l),
(489,580,l),
(489,642,l),
(403,548,l),
(146,446,l),
(58,534,l),
(46,697,l),
(235,669,l),
(369,420,l),
(423,247,l),
(377,164,l),
(459,74,l),
(524,7,l),
(410,35,l),
(315,85,l),
(332,360,l),
(214,567,l),
(113,609,l),
(132,520,l),
(362,598,l),
(467,700,l),
(573,680,l),
(520,514,l),
(90,336,l),
(23,249,l),
(-18,288,l),
(47,370,l)
);
}
);
width = 600;
},
{
layerId = m003;
shapes = (
{
closed = 1;
nodes = (
(207,681,l),
(314,656,l),
(501,611,l),
(486,647,l),
(403,548,l),
(267,298,l),
(179,386,l),
(167,549,l),
(356,521,l),
(369,420,l),
(423,247,l),
(377,164,l),
(459,74,l),
(524,7,l),
(439,12,l),
(315,85,l),
(332,360,l),
(335,419,l),
(234,461,l),
(253,372,l),
(362,598,l),
(467,700,l),
(573,680,l),
(514,537,l),
(140,637,l),
(38,595,l),
(22,649,l),
(119,688,l)
);
}
);
width = 600;
},
{
layerId = m004;
shapes = (
{
closed = 1;
nodes = (
(207,681,l),
(328,551,l),
(480,431,l),
(465,467,l),
(403,481,l),
(129,55,l),
(41,143,l),
(58,251,l),
(196,225,l),
(261,136,l),
(337,160,l),
(377,119,l),
(459,74,l),
(524,7,l),
(439,12,l),
(315,85,l),
(194,117,l),
(197,176,l),
(96,218,l),
(115,129,l),
(368,510,l),
(446,520,l),
(552,500,l),
(507,356,l),
(140,637,l),
(38,595,l),
(22,649,l),
(119,688,l)
);
}
);
width = 600;
},
{
layerId = m005;
shapes = (
{
closed = 1;
nodes = (
(230,639,l),
(337,614,l),
(503,572,l),
(459,530,l),
(382,511,l),
(-17,349,l),
(-3,228,l),
(96,127,l),
(161,78,l),
(207,67,l),
(278,51,l),
(353,9,l),
(435,-36,l),
(500,-103,l),
(439,12,l),
(315,85,l),
(194,117,l),
(197,176,l),
(96,218,l),
(29,339,l),
(431,456,l),
(491,478,l),
(552,500,l),
(575,618,l),
(163,688,l),
(30,658,l),
(45,607,l),
(142,646,l)
);
}
);
width = 600;
},
{
layerId = m006;
shapes = (
{
closed = 1;
nodes = (
(230,639,l),
(357,608,l),
(487,577,l),
(431,410,l),
(354,391,l),
(120,312,l),
(22,231,l),
(38,157,l),
(161,78,l),
(207,67,l),
(278,51,l),
(353,9,l),
(482,16,l),
(547,5,l),
(483,74,l),
(315,85,l),
(194,117,l),
(108,169,l),
(121,221,l),
(178,285,l),
(403,336,l),
(463,358,l),
(524,380,l),
(559,623,l),
(163,688,l),
(30,658,l),
(45,607,l),
(142,646,l)
);
}
);
width = 600;
},
{
layerId = m007;
shapes = (
{
closed = 1;
nodes = (
(230,608,l),
(357,608,l),
(472,625,l),
(509,556,l),
(394,495,l),
(120,327,l),
(22,187,l),
(5,0,l),
(109,0,l),
(174,28,l),
(278,51,l),
(353,9,l),
(512,11,l),
(577,0,l),
(543,71,l),
(315,85,l),
(161,114,l),
(82,85,l),
(121,221,l),
(215,285,l),
(443,440,l),
(503,462,l),
(589,546,l),
(517,680,l),
(163,688,l),
(30,658,l),
(45,607,l),
(142,615,l)
);
}
);
width = 600;
},
{
layerId = m008;
shapes = (
{
closed = 1;
nodes = (
(230,608,l),
(357,636,l),
(472,625,l),
(509,556,l),
(394,495,l),
(160,327,l),
(22,232,l),
(5,0,l),
(109,0,l),
(174,28,l),
(278,28,l),
(353,9,l),
(512,11,l),
(577,0,l),
(543,71,l),
(315,85,l),
(161,114,l),
(82,85,l),
(121,221,l),
(242,266,l),
(443,440,l),
(503,462,l),
(589,546,l),
(517,680,l),
(193,703,l),
(30,658,l),
(45,607,l),
(160,636,l)
);
}
);
width = 600;
}
);
unicode = 90;
},
{
glyphname = zero;
lastChange = "2024-03-08 19:49:11 +0000";
layers = (
{
layerId = m01;
shapes = (
{
closed = 1;
nodes = (
(112,150,l),
(272,206,l),
(431,410,l),
(512,471,l),
(445,543,l),
(258,333,l),
(60,410,l),
(56,573,l),
(178,662,l),
(327,553,l),
(445,274,l),
(457,166,l),
(527,41,l),
(407,106,l),
(353,379,l),
(211,582,l),
(114,503,l),
(221,389,l),
(420,612,l),
(549,553,l),
(577,411,l),
(477,380,l),
(238,119,l),
(56,105,l),
(21,274,l)
);
}
);
width = 600;
},
{
layerId = m002;
shapes = (
{
closed = 1;
nodes = (
(87,242,l),
(188,180,l),
(271,206,l),
(352,267,l),
(285,339,l),
(260,404,l),
(233,448,l),
(229,611,l),
(351,700,l),
(500,591,l),
(445,274,l),
(457,166,l),
(527,41,l),
(407,106,l),
(407,368,l),
(449,552,l),
(345,634,l),
(292,571,l),
(317,379,l),
(377,276,l),
(361,190,l),
(317,176,l),
(220,116,l),
(16,230,l),
(68,395,l)
);
}
);
width = 600;
},
{
layerId = m003;
shapes = (
{
closed = 1;
nodes = (
(98,523,l),
(199,461,l),
(199,305,l),
(246,263,l),
(285,339,l),
(260,404,l),
(285,448,l),
(317,491,l),
(430,491,l),
(472,361,l),
(445,274,l),
(457,166,l),
(527,41,l),
(407,106,l),
(393,197,l),
(417,372,l),
(427,430,l),
(328,455,l),
(317,379,l),
(260,211,l),
(199,211,l),
(137,276,l),
(116,404,l),
(27,511,l),
(79,676,l)
);
}
);
width = 600;
},
{
layerId = m004;
shapes = (
{
closed = 1;
nodes = (
(98,523,l),
(199,461,l),
(199,305,l),
(246,263,l),
(285,339,l),
(260,404,l),
(285,448,l),
(317,491,l),
(406,449,l),
(474,434,l),
(498,466,l),
(517,491,l),
(537,646,l),
(585,519,l),
(534,441,l),
(417,372,l),
(372,430,l),
(328,455,l),
(317,379,l),
(260,211,l),
(199,211,l),
(137,276,l),
(116,404,l),
(27,511,l),
(79,676,l)
);
}
);
width = 600;
},
{
layerId = m005;
shapes = (
{
closed = 1;
nodes = (
(193,523,l),
(155,461,l),
(150,310,l),
(254,225,l),
(281,144,l),
(328,133,l),
(376,110,l),
(436,146,l),
(474,306,l),
(474,434,l),
(498,466,l),
(433,543,l),
(425,646,l),
(486,611,l),
(534,441,l),
(485,210,l),
(440,101,l),
(413,104,l),
(371,65,l),
(260,102,l),
(174,210,l),
(105,276,l),
(76,404,l),
(125,637,l),
(174,676,l)
);
}
);
width = 600;
},
{
layerId = m006;
shapes = (
{
closed = 1;
nodes = (
(189,590,l),
(107,448,l),
(87,243,l),
(191,158,l),
(218,77,l),
(265,66,l),
(313,43,l),
(393,102,l),
(474,306,l),
(474,434,l),
(478,478,l),
(396,586,l),
(388,689,l),
(449,654,l),
(534,441,l),
(485,210,l),
(485,101,l),
(413,43,l),
(308,-2,l),
(197,35,l),
(111,143,l),
(42,209,l),
(42,412,l),
(125,676,l),
(227,700,l)
);
}
);
width = 600;
},
{
layerId = m007;
shapes = (
{
closed = 1;
nodes = (
(300,649,l),
(145,531,l),
(91,378,l),
(195,293,l),
(218,77,l),
(265,66,l),
(313,43,l),
(465,155,l),
(509,321,l),
(474,434,l),
(501,493,l),
(373,639,l),
(352,710,l),
(413,675,l),
(547,508,l),
(573,228,l),
(485,101,l),
(413,43,l),
(308,-2,l),
(197,35,l),
(115,278,l),
(46,344,l),
(73,552,l),
(187,676,l),
(289,700,l)
);
}
);
width = 600;
},
{
layerId = m008;
shapes = (
{
closed = 1;
nodes = (
(321,673,l),
(181,569,l),
(109,416,l),
(142,250,l),
(207,108,l),
(254,97,l),
(313,66,l),
(415,106,l),
(503,359,l),
(448,472,l),
(475,531,l),
(282,666,l),
(294,727,l),
(413,675,l),
(521,546,l),
(547,266,l),
(499,123,l),
(418,37,l),
(308,-2,l),
(186,66,l),
(62,235,l),
(62,394,l),
(109,590,l),
(187,676,l),
(313,706,l)
);
}
);
width = 600;
}
);
unicode = 48;
},
{
glyphname = one;
lastChange = "2024-03-08 18:51:42 +0000";
layers = (
{
layerId = m01;
shapes = (
{
closed = 1;
nodes = (
(290,331,l),
(453,449,l),
(473,498,l),
(448,510,l),
(265,344,l),
(80,423,l),
(56,548,l),
(245,658,l),
(328,385,l),
(365,262,l),
(555,27,l),
(482,27,l),
(330,267,l),
(187,587,l),
(130,517,l),
(247,392,l),
(448,595,l),
(529,491,l),
(507,361,l),
(161,280,l),
(20,79,l),
(80,304,l)
);
}
);
width = 600;
},
{
layerId = m002;
shapes = (
{
closed = 1;
nodes = (
(250,333,l),
(249,345,l),
(232,382,l),
(207,394,l),
(152,397,l),
(80,423,l),
(56,548,l),
(245,658,l),
(328,385,l),
(365,262,l),
(555,27,l),
(482,27,l),
(330,267,l),
(214,598,l),
(105,517,l),
(134,445,l),
(195,445,l),
(314,366,l),
(267,269,l),
(161,280,l),
(20,79,l),
(80,304,l)
);
}
);
width = 600;
},
{
layerId = m003;
shapes = (
{
closed = 1;
nodes = (
(122,352,l),
(121,364,l),
(144,401,l),
(108,434,l),
(65,536,l),
(150,563,l),
(179,643,l),
(328,516,l),
(328,385,l),
(365,262,l),
(433,0,l),
(360,0,l),
(330,267,l),
(297,456,l),
(214,582,l),
(178,545,l),
(121,485,l),
(198,382,l),
(132,319,l),
(114,301,l),
(45,270,l),
(33,325,l)
);
}
);
width = 600;
},
{
layerId = m004;
shapes = (
{
closed = 1;
nodes = (
(121,576,l),
(131,583,l),
(174,581,l),
(185,629,l),
(252,716,l),
(318,656,l),
(402,671,l),
(365,478,l),
(338,385,l),
(365,262,l),
(433,0,l),
(360,0,l),
(330,267,l),
(298,475,l),
(366,610,l),
(316,623,l),
(236,643,l),
(184,525,l),
(97,551,l),
(72,557,l),
(11,602,l),
(53,640,l)
);
}
);
width = 600;
},
{
layerId = m005;
shapes = (
{
closed = 1;
nodes = (
(165,536,l),
(177,534,l),
(206,503,l),
(247,530,l),
(356,546,l),
(378,503,l),
(462,518,l),
(425,325,l),
(398,232,l),
(385,130,l),
(433,0,l),
(360,0,l),
(330,135,l),
(358,322,l),
(426,457,l),
(376,470,l),
(294,505,l),
(175,456,l),
(130,535,l),
(116,557,l),
(103,631,l),
(160,630,l)
);
}
);
width = 600;
},
{
layerId = m006;
shapes = (
{
closed = 1;
nodes = (
(209,628,l),
(226,614,l),
(250,595,l),
(294,561,l),
(356,546,l),
(414,546,l),
(462,518,l),
(425,325,l),
(398,232,l),
(385,130,l),
(433,0,l),
(360,0,l),
(330,135,l),
(358,322,l),
(408,464,l),
(395,500,l),
(294,531,l),
(219,548,l),
(188,557,l),
(174,579,l),
(103,631,l),
(160,663,l)
);
}
);
width = 600;
},
{
layerId = m007;
shapes = (
{
closed = 1;
nodes = (
(272,682,l),
(318,671,l),
(346,658,l),
(385,593,l),
(390,513,l),
(390,447,l),
(392,362,l),
(403,250,l),
(385,201,l),
(385,146,l),
(433,0,l),
(360,0,l),
(330,152,l),
(336,246,l),
(343,354,l),
(343,420,l),
(336,539,l),
(330,593,l),
(320,635,l),
(261,628,l),
(195,608,l),
(215,649,l)
);
}
);
width = 600;
},
{
layerId = m008;
shapes = (
{
closed = 1;
nodes = (
(280,701,l),
(326,691,l),
(371,681,l),
(403,615,l),
(403,512,l),
(416,454,l),
(392,361,l),
(403,249,l),
(416,186,l),
(416,131,l),
(403,25,l),
(330,0,l),
(330,151,l),
(336,246,l),
(318,338,l),
(343,418,l),
(336,537,l),
(324,596,l),
(320,666,l),
(261,644,l),
(164,644,l),
(215,700,l)
);
}
);
width = 600;
}
);
unicode = 49;
},
{
glyphname = two;
lastChange = "2024-03-08 18:57:16 +0000";
layers = (
{
layerId = m01;
shapes = (
{
closed = 1;
nodes = (
(199,214,l),
(273,372,l),
(463,486,l),
(500,542,l),
(410,524,l),
(190,404,l),
(60,451,l),
(59,586,l),
(153,655,l),
(311,646,l),
(452,263,l),
(531,222,l),
(479,56,l),
(428,172,l),
(314,562,l),
(162,613,l),
(100,500,l),
(212,481,l),
(372,565,l),
(452,620,l),
(561,562,l),
(537,434,l),
(311,284,l),
(179,107,l),
(49,97,l)
);
}
);
width = 600;
},
{
layerId = m002;
shapes = (
{
closed = 1;
nodes = (
(309,385,l),
(355,464,l),
(475,521,l),
(500,542,l),
(410,524,l),
(190,404,l),
(19,439,l),
(54,531,l),
(200,328,l),
(296,308,l),
(503,161,l),
(582,120,l),
(530,-7,l),
(442,99,l),
(299,224,l),
(160,328,l),
(59,477,l),
(170,429,l),
(372,565,l),
(452,620,l),
(561,562,l),
(546,471,l),
(404,396,l),
(322,308,l),
(237,358,l)
);
}
);
width = 600;
},
{
layerId = m003;
shapes = (
{
closed = 1;
nodes = (
(233,659,l),
(299,678,l),
(400,696,l),
(564,517,l),
(410,524,l),
(190,404,l),
(19,439,l),
(54,531,l),
(200,328,l),
(296,308,l),
(491,120,l),
(582,120,l),
(530,-7,l),
(442,99,l),
(299,224,l),
(160,328,l),
(59,477,l),
(170,429,l),
(372,565,l),
(419,565,l),
(496,544,l),
(344,640,l),
(265,628,l),
(170,588,l),
(134,640,l)
);
}
);
width = 600;
},
{
layerId = m004;
shapes = (
{
closed = 1;
nodes = (
(233,659,l),
(299,678,l),
(400,696,l),
(564,517,l),
(335,355,l),
(190,123,l),
(104,123,l),
(104,101,l),
(210,68,l),
(359,131,l),
(491,68,l),
(582,120,l),
(530,-7,l),
(442,35,l),
(362,47,l),
(74,28,l),
(12,136,l),
(150,175,l),
(297,396,l),
(344,396,l),
(496,544,l),
(344,640,l),
(265,628,l),
(170,588,l),
(134,640,l)
);
}
);
width = 600;
},
{
layerId = m005;
shapes = (
{
closed = 1;
nodes = (
(128,663,l),
(194,682,l),
(295,700,l),
(544,637,l),
(457,355,l),
(190,123,l),
(104,123,l),
(104,101,l),
(210,68,l),
(359,131,l),
(491,68,l),
(582,120,l),
(530,-7,l),
(442,35,l),
(362,47,l),
(74,28,l),
(12,136,l),
(150,175,l),
(385,385,l),
(432,385,l),
(442,579,l),
(239,644,l),
(160,632,l),
(65,592,l),
(29,644,l)
);
}
);
width = 600;
},
{
layerId = m006;
shapes = (
{
closed = 1;
nodes = (
(128,663,l),
(194,682,l),
(295,700,l),
(544,637,l),
(534,444,l),
(295,193,l),
(160,161,l),
(104,120,l),
(210,56,l),
(359,131,l),
(491,68,l),
(582,120,l),
(530,-7,l),
(360,50,l),
(210,-11,l),
(33,68,l),
(46,214,l),
(274,244,l),
(359,417,l),
(489,500,l),
(471,592,l),
(239,644,l),
(160,632,l),
(65,592,l),
(29,644,l)
);
}
);
width = 600;
},
{
layerId = m007;
shapes = (
{
closed = 1;
nodes = (
(78,612,l),
(160,651,l),
(295,700,l),
(502,637,l),
(534,444,l),
(295,193,l),
(159,97,l),
(103,56,l),
(210,56,l),
(359,131,l),
(491,68,l),
(582,120,l),
(530,-7,l),
(360,50,l),
(210,-11,l),
(33,11,l),
(33,68,l),
(274,244,l),
(384,374,l),
(489,500,l),
(429,592,l),
(287,659,l),
(143,595,l),
(65,463,l),
(29,515,l)
);
}
);
width = 600;
},
{
layerId = m008;
shapes = (
{
closed = 1;
nodes = (
(100,608,l),
(175,651,l),
(295,700,l),
(532,611,l),
(574,381,l),
(268,202,l),
(140,149,l),
(108,93,l),
(210,82,l),
(359,131,l),
(502,85,l),
(582,150,l),
(530,-2,l),
(360,50,l),
(210,-11,l),
(33,11,l),
(14,159,l),
(214,281,l),
(402,374,l),
(503,474,l),
(443,566,l),
(287,629,l),
(194,560,l),
(67,473,l),
(29,502,l)
);
}
);
width = 600;
}
);
unicode = 50;
},
{
glyphname = three;
lastChange = "2024-03-08 19:02:45 +0000";
layers = (
{
layerId = m01;
shapes = (
{
closed = 1;
nodes = (
(125,134,l),
(307,335,l),
(453,467,l),
(500,509,l),
(430,544,l),
(212,354,l),
(30,382,l),
(30,520,l),
(116,608,l),
(220,644,l),
(456,260,l),
(524,7,l),
(423,114,l),
(435,198,l),
(226,562,l),
(122,567,l),
(90,457,l),
(208,417,l),
(372,566,l),
(453,605,l),
(539,572,l),
(525,427,l),
(307,255,l),
(93,22,l),
(48,188,l)
);
}
);
width = 600;
},
{
layerId = m002;
shapes = (
{
closed = 1;
nodes = (
(79,244,l),
(212,271,l),
(274,329,l),
(321,371,l),
(251,406,l),
(212,354,l),
(30,382,l),
(30,520,l),
(116,608,l),
(360,644,l),
(456,260,l),
(524,7,l),
(423,114,l),
(435,198,l),
(333,563,l),
(122,567,l),
(90,457,l),
(130,417,l),
(193,428,l),
(274,467,l),
(360,434,l),
(346,289,l),
(307,255,l),
(47,187,l),
(2,353,l)
);
}
);
width = 600;
},
{
layerId = m003;
shapes = (
{
closed = 1;
nodes = (
(81,478,l),
(187,393,l),
(271,382,l),
(333,373,l),
(315,449,l),
(278,531,l),
(278,612,l),
(384,700,l),
(507,690,l),
(568,310,l),
(335,112,l),
(123,0,l),
(190,112,l),
(273,175,l),
(488,279,l),
(479,659,l),
(374,614,l),
(369,557,l),
(349,508,l),
(377,471,l),
(407,383,l),
(286,301,l),
(235,310,l),
(16,466,l),
(115,606,l)
);
}
);
width = 600;
},
{
layerId = m004;
shapes = (
{
closed = 1;
nodes = (
(94,500,l),
(94,414,l),
(190,382,l),
(260,396,l),
(271,478,l),
(234,560,l),
(295,654,l),
(545,566,l),
(549,489,l),
(479,195,l),
(335,112,l),
(123,0,l),
(190,112,l),
(273,175,l),
(418,245,l),
(496,455,l),
(497,516,l),
(359,587,l),
(305,537,l),
(333,500,l),
(278,323,l),
(151,301,l),
(76,338,l),
(16,466,l),
(115,606,l)
);
}
);
width = 600;
},
{
layerId = m005;
shapes = (
{
closed = 1;
nodes = (
(52,532,l),
(91,573,l),
(134,585,l),
(204,599,l),
(226,618,l),
(262,633,l),
(337,633,l),
(526,341,l),
(530,264,l),
(239,15,l),
(159,33,l),
(46,64,l),
(105,92,l),
(156,90,l),
(239,78,l),
(308,145,l),
(478,291,l),
(359,485,l),
(337,561,l),
(277,561,l),
(222,564,l),
(134,529,l),
(96,512,l),
(16,466,l),
(-16,537,l)
);
}
);
width = 600;
},
{
layerId = m006;
shapes = (
{
closed = 1;
nodes = (
(170,605,l),
(209,646,l),
(252,658,l),
(363,637,l),
(411,585,l),
(292,384,l),
(379,253,l),
(458,188,l),
(462,111,l),
(239,15,l),
(159,33,l),
(46,64,l),
(105,92,l),
(156,90,l),
(239,78,l),
(308,111,l),
(410,138,l),
(335,215,l),
(313,291,l),
(226,375,l),
(336,585,l),
(252,602,l),
(214,585,l),
(58,518,l),
(26,589,l)
);
}
);
width = 600;
},
{
layerId = m007;
shapes = (
{
closed = 1;
nodes = (
(142,672,l),
(174,700,l),
(360,700,l),
(467,559,l),
(500,455,l),
(247,366,l),
(271,306,l),
(548,230,l),
(475,22,l),
(239,15,l),
(159,33,l),
(46,64,l),
(105,92,l),
(156,90,l),
(239,78,l),
(448,115,l),
(448,164,l),
(212,246,l),
(142,302,l),
(175,381,l),
(399,500,l),
(360,644,l),
(174,629,l),
(132,577,l),
(26,589,l)
);
}
);
width = 600;
},
{
layerId = m008;
shapes = (
{
closed = 1;
nodes = (
(68,624,l),
(174,700,l),
(425,700,l),
(532,559,l),
(565,455,l),
(247,377,l),
(247,328,l),
(560,233,l),
(464,-18,l),
(232,23,l),
(88,73,l),
(50,193,l),
(114,184,l),
(145,112,l),
(232,96,l),
(435,58,l),
(449,179,l),
(180,275,l),
(127,339,l),
(175,420,l),
(464,500,l),
(425,644,l),
(174,629,l),
(148,584,l),
(68,513,l)
);
}
);
width = 600;
}
);
unicode = 51;
},
{
glyphname = four;
lastChange = "2024-03-08 19:49:20 +0000";
layers = (
{
layerId = m01;
shapes = (
{
closed = 1;
nodes = (
(137,133,l),
(334,313,l),
(447,433,l),
(511,504,l),
(430,544,l),
(212,354,l),
(16,371,l),
(16,558,l),
(116,664,l),
(279,664,l),
(376,469,l),
(481,260,l),
(506,113,l),
(524,7,l),
(423,114,l),
(423,192,l),
(256,613,l),
(125,602,l),
(86,500,l),
(172,450,l),
(372,566,l),
(512,633,l),
(573,520,l),
(556,416,l),
(318,203,l),
(74,22,l),
(61,114,l),
(47,220,l)
);
}
);
width = 600;
},
{
layerId = m002;
shapes = (
{
closed = 1;
nodes = (
(137,133,l),
(208,226,l),
(261,296,l),
(240,351,l),
(195,367,l),
(127,338,l),
(16,371,l),
(16,558,l),
(116,664,l),
(279,664,l),
(376,469,l),
(481,260,l),
(506,113,l),
(524,7,l),
(423,114,l),
(423,192,l),
(256,613,l),
(125,602,l),
(86,500,l),
(102,429,l),
(186,429,l),
(265,459,l),
(326,346,l),
(370,279,l),
(318,203,l),
(74,22,l),
(61,114,l),
(47,220,l)
);
}
);
width = 600;
},
{
layerId = m003;
shapes = (
{
closed = 1;
nodes = (
(408,111,l),
(261,131,l),
(261,296,l),
(261,367,l),
(216,383,l),
(127,338,l),
(16,371,l),
(-2,594,l),
(98,700,l),
(261,700,l),
(376,469,l),
(481,260,l),
(506,113,l),
(524,7,l),
(423,114,l),
(423,192,l),
(238,649,l),
(107,638,l),
(68,536,l),
(80,438,l),
(140,418,l),
(265,459,l),
(326,346,l),
(326,214,l),
(396,170,l),
(530,170,l),
(615,192,l),
(560,111,l)
);
}
);
width = 600;
},
{
layerId = m004;
shapes = (
{
closed = 1;
nodes = (
(408,111,l),
(261,131,l),
(156,131,l),
(128,210,l),
(83,226,l),
(45,309,l),
(16,371,l),
(-2,594,l),
(98,700,l),
(261,700,l),
(376,469,l),
(395,257,l),
(438,101,l),
(438,4,l),
(337,111,l),
(337,189,l),
(238,649,l),
(107,638,l),
(68,536,l),
(80,438,l),
(92,353,l),
(132,302,l),
(193,189,l),
(299,187,l),
(396,170,l),
(530,170,l),
(615,192,l),
(560,111,l)
);
}
);
width = 600;
},
{
layerId = m005;
shapes = (
{
closed = 1;
nodes = (
(420,275,l),
(273,295,l),
(168,295,l),
(131,251,l),
(86,267,l),
(45,309,l),
(16,371,l),
(-2,594,l),
(98,700,l),
(376,700,l),
(359,469,l),
(395,257,l),
(438,101,l),
(438,4,l),
(337,111,l),
(297,189,l),
(325,653,l),
(107,638,l),
(68,536,l),
(80,438,l),
(92,353,l),
(132,338,l),
(205,353,l),
(311,351,l),
(408,334,l),
(542,334,l),
(627,356,l),
(572,275,l)
);
}
);
width = 600;
},
{
layerId = m006;
shapes = (
{
closed = 1;
nodes = (
(420,275,l),
(273,295,l),
(168,295,l),
(131,251,l),
(18,216,l),
(17,275,l),
(16,371,l),
(115,600,l),
(237,672,l),
(376,700,l),
(359,469,l),
(395,257,l),
(438,101,l),
(438,4,l),
(337,111,l),
(297,189,l),
(325,653,l),
(258,630,l),
(185,542,l),
(80,438,l),
(80,315,l),
(132,338,l),
(205,353,l),
(311,351,l),
(408,334,l),
(457,334,l),
(542,356,l),
(487,275,l)
);
}
);
width = 600;
},
{
layerId = m007;
shapes = (
{
closed = 1;
nodes = (
(451,178,l),
(274,224,l),
(204,223,l),
(153,210,l),
(18,216,l),
(17,275,l),
(38,371,l),
(115,573,l),
(237,672,l),
(376,700,l),
(359,469,l),
(395,257,l),
(422,101,l),
(438,4,l),
(337,40,l),
(338,165,l),
(325,653,l),
(258,630,l),
(185,542,l),
(121,403,l),
(80,281,l),
(154,265,l),
(227,280,l),
(312,280,l),
(439,237,l),
(488,237,l),
(573,259,l),
(518,178,l)
);
}
);
width = 600;
},
{
layerId = m008;
shapes = (
{
closed = 1;
nodes = (
(486,181,l),
(310,190,l),
(191,214,l),
(140,201,l),
(5,207,l),
(4,266,l),
(102,371,l),
(148,513,l),
(237,672,l),
(408,703,l),
(395,469,l),
(395,257,l),
(422,101,l),
(438,4,l),
(313,40,l),
(359,272,l),
(338,630,l),
(299,630,l),
(249,480,l),
(168,353,l),
(87,272,l),
(141,256,l),
(214,271,l),
(299,257,l),
(439,237,l),
(505,259,l),
(558,210,l),
(557,141,l)
);
}
);
width = 600;
}
);
unicode = 52;
},
{
glyphname = five;
lastChange = "2024-03-08 19:17:08 +0000";
layers = (
{
layerId = m01;
shapes = (
{
closed = 1;
nodes = (
(148,302,l),
(336,374,l),
(481,456,l),
(518,548,l),
(403,548,l),
(212,373,l),
(28,425,l),
(16,588,l),
(116,700,l),
(322,667,l),
(376,494,l),
(434,292,l),
(556,163,l),
(524,7,l),
(467,163,l),
(372,213,l),
(285,607,l),
(163,632,l),
(83,500,l),
(198,447,l),
(362,598,l),
(487,619,l),
(594,575,l),
(541,409,l),
(127,213,l),
(154,33,l),
(69,61,l),
(47,232,l)
);
}
);
width = 600;
},
{
layerId = m002;
shapes = (
{
closed = 1;
nodes = (
(431,265,l),
(395,318,l),
(408,380,l),
(445,472,l),
(330,472,l),
(212,373,l),
(28,425,l),
(16,588,l),
(116,700,l),
(267,621,l),
(344,508,l),
(362,256,l),
(506,143,l),
(524,7,l),
(423,143,l),
(330,213,l),
(230,561,l),
(163,632,l),
(83,500,l),
(198,447,l),
(289,522,l),
(414,543,l),
(521,499,l),
(468,333,l),
(534,303,l),
(592,432,l),
(622,347,l),
(567,226,l)
);
}
);
width = 600;
},
{
layerId = m003;
shapes = (
{
closed = 1;
nodes = (
(355,197,l),
(319,250,l),
(363,312,l),
(369,404,l),
(305,500,l),
(121,373,l),
(28,425,l),
(16,588,l),
(116,587,l),
(267,508,l),
(309,415,l),
(362,143,l),
(447,108,l),
(524,7,l),
(399,86,l),
(330,100,l),
(230,448,l),
(163,519,l),
(71,534,l),
(107,447,l),
(198,522,l),
(323,543,l),
(445,431,l),
(392,265,l),
(458,235,l),
(516,364,l),
(546,279,l),
(491,158,l)
);
}
);
width = 600;
},
{
layerId = m004;
shapes = (
{
closed = 1;
nodes = (
(107,91,l),
(71,144,l),
(115,206,l),
(225,302,l),
(154,398,l),
(121,373,l),
(28,425,l),
(16,588,l),
(116,587,l),
(267,508,l),
(309,415,l),
(422,330,l),
(507,295,l),
(584,194,l),
(459,273,l),
(390,287,l),
(230,448,l),
(163,519,l),
(71,534,l),
(71,464,l),
(90,420,l),
(172,441,l),
(261,302,l),
(123,159,l),
(189,129,l),
(268,258,l),
(298,173,l),
(243,52,l)
);
}
);
width = 600;
},
{
layerId = m005;
shapes = (
{
closed = 1;
nodes = (
(122,487,l),
(178,519,l),
(220,470,l),
(263,428,l),
(255,487,l),
(270,621,l),
(400,621,l),
(517,667,l),
(543,535,l),
(470,383,l),
(438,266,l),
(429,207,l),
(470,151,l),
(461,24,l),
(419,166,l),
(377,223,l),
(414,375,l),
(477,514,l),
(474,611,l),
(428,557,l),
(402,587,l),
(308,575,l),
(282,313,l),
(189,466,l),
(153,402,l),
(102,302,l),
(15,279,l),
(73,355,l)
);
}
);
width = 600;
},
{
layerId = m006;
shapes = (
{
closed = 1;
nodes = (
(146,711,l),
(180,654,l),
(188,610,l),
(156,545,l),
(236,545,l),
(291,564,l),
(433,564,l),
(533,499,l),
(561,399,l),
(524,270,l),
(524,170,l),
(465,137,l),
(376,46,l),
(203,26,l),
(339,75,l),
(408,155,l),
(463,261,l),
(489,375,l),
(486,434,l),
(464,490,l),
(435,525,l),
(333,511,l),
(103,501,l),
(142,605,l),
(61,769,l),
(290,697,l),
(376,753,l),
(338,651,l)
);
}
);
width = 600;
},
{
layerId = m007;
shapes = (
{
closed = 1;
nodes = (
(187,691,l),
(111,654,l),
(111,552,l),
(182,457,l),
(262,457,l),
(317,476,l),
(484,431,l),
(559,320,l),
(575,238,l),
(438,77,l),
(374,0,l),
(308,12,l),
(96,0,l),
(35,160,l),
(131,44,l),
(275,62,l),
(385,109,l),
(477,218,l),
(513,290,l),
(496,336,l),
(459,384,l),
(359,423,l),
(129,413,l),
(65,547,l),
(61,769,l),
(427,725,l),
(513,739,l),
(475,637,l)
);
}
);
width = 600;
},
{
layerId = m008;
shapes = (
{
closed = 1;
nodes = (
(338,712,l),
(158,712,l),
(111,552,l),
(161,434,l),
(289,483,l),
(427,469,l),
(542,406,l),
(577,321,l),
(577,192,l),
(510,58,l),
(374,0,l),
(210,-13,l),
(67,40,l),
(35,160,l),
(142,116,l),
(275,77,l),
(461,124,l),
(507,218,l),
(487,258,l),
(508,336,l),
(418,370,l),
(351,403,l),
(111,374,l),
(65,547,l),
(67,748,l),
(386,783,l),
(513,739,l),
(487,596,l)
);
}
);
width = 600;
}
);
unicode = 53;
},
{
glyphname = six;
lastChange = "2024-03-08 19:25:55 +0000";
layers = (
{
layerId = m01;
shapes = (
{
closed = 1;
nodes = (
(225,305,l),
(416,666,l),
(580,565,l),
(507,382,l),
(413,364,l),
(267,424,l),
(202,521,l),
(187,609,l),
(128,633,l),
(128,464,l),
(202,411,l),
(422,321,l),
(542,231,l),
(588,61,l),
(349,286,l),
(98,385,l),
(40,551,l),
(71,666,l),
(233,676,l),
(289,509,l),
(422,431,l),
(512,512,l),
(453,568,l),
(284,266,l),
(151,220,l),
(73,12,l),
(26,109,l),
(87,248,l)
);
}
);
width = 600;
},
{
layerId = m002;
shapes = (
{
closed = 1;
nodes = (
(266,464,l),
(394,485,l),
(558,384,l),
(485,201,l),
(391,183,l),
(267,424,l),
(202,521,l),
(187,609,l),
(128,633,l),
(128,464,l),
(173,398,l),
(209,345,l),
(305,219,l),
(305,85,l),
(136,310,l),
(98,385,l),
(40,551,l),
(71,666,l),
(233,676,l),
(289,509,l),
(400,250,l),
(490,331,l),
(431,387,l),
(325,425,l),
(192,351,l),
(114,143,l),
(67,240,l),
(128,379,l)
);
}
);
width = 600;
},
{
layerId = m003;
shapes = (
{
closed = 1;
nodes = (
(304,534,l),
(423,480,l),
(531,-17,l),
(340,-40,l),
(280,183,l),
(267,424,l),
(202,521,l),
(187,609,l),
(128,633,l),
(128,464,l),
(128,414,l),
(147,374,l),
(209,318,l),
(147,245,l),
(71,367,l),
(54,407,l),
(40,551,l),
(71,666,l),
(233,676,l),
(289,509,l),
(332,246,l),
(374,79,l),
(431,130,l),
(332,468,l),
(180,481,l),
(0,352,l),
(14,458,l),
(142,540,l)
);
}
);
width = 600;
},
{
layerId = m004;
shapes = (
{
closed = 1;
nodes = (
(565,378,l),
(565,149,l),
(531,-17,l),
(340,-40,l),
(280,183,l),
(283,290,l),
(218,387,l),
(203,475,l),
(128,582,l),
(82,512,l),
(82,462,l),
(101,422,l),
(163,366,l),
(101,293,l),
(25,415,l),
(8,455,l),
(40,551,l),
(176,666,l),
(249,542,l),
(305,375,l),
(332,246,l),
(374,79,l),
(431,130,l),
(505,231,l),
(520,375,l),
(340,345,l),
(354,451,l),
(471,444,l)
);
}
);
width = 600;
},
{
layerId = m005;
shapes = (
{
closed = 1;
nodes = (
(565,378,l),
(565,149,l),
(531,-17,l),
(340,-40,l),
(280,183,l),
(283,290,l),
(218,387,l),
(203,475,l),
(152,599,l),
(184,669,l),
(207,718,l),
(247,759,l),
(444,759,l),
(493,714,l),
(422,681,l),
(315,700,l),
(249,630,l),
(266,581,l),
(249,542,l),
(305,375,l),
(332,246,l),
(374,79,l),
(431,130,l),
(505,231,l),
(520,375,l),
(340,345,l),
(354,451,l),
(471,444,l)
);
}
);
width = 600;
},
{
layerId = m006;
shapes = (
{
closed = 1;
nodes = (
(565,378,l),
(565,149,l),
(448,-17,l),
(284,0,l),
(84,42,l),
(79,202,l),
(79,321,l),
(64,409,l),
(13,533,l),
(184,669,l),
(207,718,l),
(335,759,l),
(494,658,l),
(543,613,l),
(472,580,l),
(315,700,l),
(249,630,l),
(127,515,l),
(110,476,l),
(166,309,l),
(153,134,l),
(264,79,l),
(442,90,l),
(505,231,l),
(520,375,l),
(340,345,l),
(354,451,l),
(471,444,l)
);
}
);
width = 600;
},
{
layerId = m007;
shapes = (
{
closed = 1;
nodes = (
(474,309,l),
(565,149,l),
(448,-17,l),
(284,0,l),
(18,42,l),
(13,202,l),
(79,321,l),
(2,584,l),
(63,700,l),
(263,688,l),
(305,721,l),
(438,699,l),
(534,537,l),
(557,475,l),
(479,478,l),
(393,656,l),
(303,624,l),
(110,624,l),
(110,536,l),
(166,309,l),
(87,134,l),
(264,79,l),
(442,90,l),
(442,193,l),
(426,288,l),
(235,306,l),
(180,349,l),
(413,377,l)
);
}
);
width = 600;
},
{
layerId = m008;
shapes = (
{
closed = 1;
nodes = (
(548,256,l),
(513,49,l),
(355,-11,l),
(191,6,l),
(40,132,l),
(35,292,l),
(28,402,l),
(86,563,l),
(147,679,l),
(263,688,l),
(314,685,l),
(430,645,l),
(456,540,l),
(471,455,l),
(379,508,l),
(363,594,l),
(301,633,l),
(208,633,l),
(169,528,l),
(115,390,l),
(109,224,l),
(171,85,l),
(310,47,l),
(464,109,l),
(464,266,l),
(67,288,l),
(78,391,l),
(400,362,l)
);
}
);
width = 600;
}
);
unicode = 54;
},
{
glyphname = seven;
lastChange = "2024-03-08 19:31:52 +0000";
layers = (
{
layerId = m01;
shapes = (
{
closed = 1;
nodes = (
(225,305,l),
(416,666,l),
(580,565,l),
(507,382,l),
(413,364,l),
(267,424,l),
(202,521,l),
(187,609,l),
(128,633,l),
(128,464,l),
(202,411,l),
(422,321,l),
(542,231,l),
(588,61,l),
(349,286,l),
(98,385,l),
(40,551,l),
(71,666,l),
(233,676,l),
(289,509,l),
(422,431,l),
(512,512,l),
(453,568,l),
(284,266,l),
(151,220,l),
(73,12,l),
(26,109,l),
(87,248,l)
);
}
);
width = 600;
},
{
layerId = m002;
shapes = (
{
closed = 1;
nodes = (
(357,232,l),
(416,666,l),
(580,565,l),
(507,382,l),
(413,364,l),
(267,424,l),
(202,521,l),
(187,609,l),
(128,633,l),
(128,464,l),
(152,411,l),
(79,349,l),
(132,259,l),
(178,89,l),
(19,314,l),
(71,442,l),
(40,551,l),
(71,666,l),
(233,676,l),
(289,509,l),
(422,431,l),
(512,512,l),
(453,568,l),
(444,148,l),
(311,102,l),
(233,-106,l),
(186,-9,l),
(247,130,l)
);
}
);
width = 600;
},
{
layerId = m003;
shapes = (
{
closed = 1;
nodes = (
(375,592,l),
(416,666,l),
(555,271,l),
(453,124,l),
(359,106,l),
(240,330,l),
(202,521,l),
(187,609,l),
(128,633,l),
(128,464,l),
(152,411,l),
(79,349,l),
(132,259,l),
(111,183,l),
(19,314,l),
(71,442,l),
(40,551,l),
(71,666,l),
(233,676,l),
(289,509,l),
(368,173,l),
(458,254,l),
(444,469,l),
(416,536,l),
(329,462,l),
(181,271,l),
(181,351,l),
(265,490,l)
);
}
);
width = 600;
},
{
layerId = m004;
shapes = (
{
closed = 1;
nodes = (
(503,631,l),
(503,417,l),
(555,215,l),
(453,50,l),
(373,150,l),
(254,401,l),
(202,495,l),
(228,552,l),
(206,586,l),
(128,475,l),
(152,427,l),
(79,371,l),
(132,289,l),
(111,221,l),
(19,339,l),
(71,455,l),
(40,553,l),
(149,616,l),
(311,627,l),
(289,482,l),
(382,225,l),
(458,196,l),
(444,437,l),
(416,512,l),
(402,582,l),
(416,673,l),
(423,738,l),
(503,738,l)
);
}
);
width = 600;
},
{
layerId = m005;
shapes = (
{
closed = 1;
nodes = (
(281,29,l),
(417,48,l),
(467,215,l),
(438,293,l),
(452,376,l),
(348,384,l),
(306,524,l),
(332,581,l),
(310,615,l),
(232,559,l),
(152,427,l),
(115,371,l),
(132,289,l),
(55,260,l),
(19,339,l),
(129,500,l),
(144,582,l),
(253,645,l),
(415,656,l),
(383,465,l),
(461,451,l),
(537,422,l),
(537,241,l),
(493,37,l),
(486,-11,l),
(438,-27,l),
(397,-27,l),
(213,-27,l)
);
}
);
width = 600;
},
{
layerId = m006;
shapes = (
{
closed = 1;
nodes = (
(254,57,l),
(369,117,l),
(404,205,l),
(438,293,l),
(452,376,l),
(487,500,l),
(443,566,l),
(387,615,l),
(310,615,l),
(246,654,l),
(186,552,l),
(149,496,l),
(166,414,l),
(89,385,l),
(53,464,l),
(136,625,l),
(178,707,l),
(286,684,l),
(415,656,l),
(563,559,l),
(552,500,l),
(537,422,l),
(499,241,l),
(438,79,l),
(405,34,l),
(334,34,l),
(262,-5,l),
(165,-27,l)
);
}
);
width = 600;
},
{
layerId = m007;
shapes = (
{
closed = 1;
nodes = (
(254,57,l),
(321,134,l),
(356,222,l),
(390,310,l),
(404,393,l),
(487,500,l),
(460,566,l),
(455,615,l),
(378,615,l),
(166,654,l),
(155,552,l),
(149,496,l),
(166,414,l),
(89,385,l),
(53,464,l),
(56,625,l),
(98,707,l),
(354,684,l),
(483,656,l),
(563,559,l),
(552,500,l),
(537,422,l),
(451,258,l),
(390,96,l),
(347,70,l),
(334,34,l),
(262,-5,l),
(165,-27,l)
);
}
);
width = 600;
},
{
layerId = m008;
shapes = (
{
closed = 1;
nodes = (
(18,-23,l),
(166,44,l),
(252,181,l),
(357,226,l),
(404,393,l),
(439,500,l),
(460,566,l),
(511,631,l),
(356,613,l),
(152,639,l),
(180,566,l),
(160,511,l),
(223,414,l),
(179,365,l),
(89,571,l),
(57,683,l),
(147,708,l),
(389,677,l),
(563,700,l),
(563,559,l),
(508,465,l),
(480,362,l),
(451,258,l),
(390,141,l),
(314,107,l),
(252,42,l),
(206,0,l),
(142,-39,l)
);
}
);
width = 600;
}
);
unicode = 55;
},
{
glyphname = eight;
lastChange = "2024-03-08 19:40:40 +0000";
layers = (
{
layerId = m01;
shapes = (
{
closed = 1;
nodes = (
(260,210,l),
(299,379,l),
(276,554,l),
(398,700,l),
(565,623,l),
(555,431,l),
(509,356,l),
(235,356,l),
(179,401,l),
(152,457,l),
(93,457,l),
(111,353,l),
(235,308,l),
(454,327,l),
(565,144,l),
(535,51,l),
(424,256,l),
(224,242,l),
(48,333,l),
(36,499,l),
(156,523,l),
(229,422,l),
(461,404,l),
(509,530,l),
(424,623,l),
(349,526,l),
(370,353,l),
(319,165,l),
(186,119,l),
(143,-10,l),
(97,51,l),
(122,147,l)
);
}
);
width = 600;
},
{
layerId = m002;
shapes = (
{
closed = 1;
nodes = (
(260,210,l),
(299,379,l),
(276,554,l),
(398,700,l),
(565,623,l),
(555,431,l),
(509,356,l),
(235,356,l),
(179,401,l),
(152,457,l),
(93,457,l),
(111,353,l),
(75,223,l),
(135,193,l),
(197,196,l),
(215,141,l),
(84,137,l),
(0,182,l),
(17,333,l),
(36,499,l),
(156,523,l),
(229,422,l),
(461,404,l),
(509,530,l),
(424,623,l),
(349,526,l),
(370,353,l),
(319,165,l),
(186,119,l),
(143,-10,l),
(97,51,l),
(122,147,l)
);
}
);
width = 600;
},
{
layerId = m003;
shapes = (
{
closed = 1;
nodes = (
(358,223,l),
(299,379,l),
(276,554,l),
(398,700,l),
(565,623,l),
(555,431,l),
(509,356,l),
(234,228,l),
(178,273,l),
(151,329,l),
(92,329,l),
(110,225,l),
(74,95,l),
(134,65,l),
(196,68,l),
(214,13,l),
(83,9,l),
(-1,54,l),
(16,205,l),
(35,371,l),
(155,395,l),
(228,294,l),
(461,404,l),
(509,530,l),
(424,623,l),
(349,526,l),
(370,353,l),
(412,295,l),
(474,244,l),
(590,314,l),
(585,238,l),
(504,181,l)
);
}
);
width = 600;
},
{
layerId = m004;
shapes = (
{
closed = 1;
nodes = (
(127,413,l),
(68,569,l),
(170,683,l),
(398,700,l),
(565,623,l),
(555,431,l),
(509,356,l),
(234,228,l),
(178,273,l),
(151,329,l),
(92,329,l),
(110,225,l),
(74,95,l),
(134,65,l),
(196,68,l),
(214,13,l),
(83,9,l),
(-1,54,l),
(16,205,l),
(35,371,l),
(155,395,l),
(228,294,l),
(461,404,l),
(509,530,l),
(424,623,l),
(228,623,l),
(139,543,l),
(181,485,l),
(243,434,l),
(359,504,l),
(354,428,l),
(273,371,l)
);
}
);
width = 600;
},
{
layerId = m005;
shapes = (
{
closed = 1;
nodes = (
(320,542,l),
(480,590,l),
(586,480,l),
(587,252,l),
(518,135,l),
(363,23,l),
(94,231,l),
(223,512,l),
(223,584,l),
(250,640,l),
(213,686,l),
(143,607,l),
(19,553,l),
(33,488,l),
(75,441,l),
(43,393,l),
(-42,492,l),
(-60,586,l),
(68,667,l),
(210,757,l),
(304,678,l),
(271,558,l),
(213,239,l),
(411,121,l),
(508,231,l),
(523,426,l),
(449,521,l),
(388,483,l),
(332,425,l),
(394,305,l),
(318,315,l),
(267,399,l)
);
}
);
width = 600;
},
{
layerId = m006;
shapes = (
{
closed = 1;
nodes = (
(251,388,l),
(415,355,l),
(484,220,l),
(472,99,l),
(356,28,l),
(105,4,l),
(27,312,l),
(27,447,l),
(84,500,l),
(126,547,l),
(184,560,l),
(223,585,l),
(298,632,l),
(350,645,l),
(404,780,l),
(483,780,l),
(431,655,l),
(392,582,l),
(319,582,l),
(219,500,l),
(136,432,l),
(79,425,l),
(135,132,l),
(255,66,l),
(392,118,l),
(403,202,l),
(355,309,l),
(283,304,l),
(184,342,l),
(182,207,l),
(120,251,l),
(114,349,l)
);
}
);
width = 600;
},
{
layerId = m007;
shapes = (
{
closed = 1;
nodes = (
(309,331,l),
(436,313,l),
(484,220,l),
(472,99,l),
(356,28,l),
(105,4,l),
(27,312,l),
(27,447,l),
(120,605,l),
(233,692,l),
(297,692,l),
(336,717,l),
(414,700,l),
(467,594,l),
(309,405,l),
(73,547,l),
(91,596,l),
(267,467,l),
(376,564,l),
(304,654,l),
(223,586,l),
(79,425,l),
(135,132,l),
(255,66,l),
(392,118,l),
(403,202,l),
(376,267,l),
(304,262,l),
(256,246,l),
(182,174,l),
(120,207,l),
(207,271,l)
);
}
);
width = 600;
},
{
layerId = m008;
shapes = (
{
closed = 1;
nodes = (
(303,351,l),
(551,279,l),
(541,96,l),
(371,10,l),
(235,-2,l),
(105,97,l),
(89,351,l),
(121,496,l),
(173,617,l),
(268,683,l),
(452,683,l),
(564,605,l),
(553,496,l),
(452,375,l),
(228,399,l),
(46,580,l),
(73,668,l),
(194,531,l),
(345,417,l),
(501,497,l),
(447,627,l),
(179,565,l),
(147,186,l),
(185,124,l),
(307,63,l),
(461,115,l),
(495,229,l),
(307,292,l),
(124,320,l),
(22,229,l),
(2,333,l),
(73,391,l)
);
}
);
width = 600;
}
);
unicode = 56;
},
{
glyphname = nine;
lastChange = "2024-03-08 19:45:47 +0000";
layers = (
{
layerId = m01;
shapes = (
{
closed = 1;
nodes = (
(202,236,l),
(299,379,l),
(316,598,l),
(454,700,l),
(565,598,l),
(565,454,l),
(411,333,l),
(211,405,l),
(200,530,l),
(111,609,l),
(111,474,l),
(168,406,l),
(333,300,l),
(496,331,l),
(541,144,l),
(479,74,l),
(454,256,l),
(336,235,l),
(150,328,l),
(48,454,l),
(48,641,l),
(147,677,l),
(224,617,l),
(265,454,l),
(432,406,l),
(514,524,l),
(460,620,l),
(384,578,l),
(370,353,l),
(261,191,l),
(186,119,l),
(122,18,l),
(27,0,l),
(122,147,l)
);
}
);
width = 600;
},
{
layerId = m002;
shapes = (
{
closed = 1;
nodes = (
(122,495,l),
(219,638,l),
(296,686,l),
(454,700,l),
(565,598,l),
(565,454,l),
(411,333,l),
(265,386,l),
(252,356,l),
(235,356,l),
(235,221,l),
(292,153,l),
(384,156,l),
(445,110,l),
(490,45,l),
(428,-25,l),
(403,35,l),
(370,96,l),
(274,75,l),
(172,201,l),
(172,388,l),
(194,435,l),
(235,454,l),
(265,454,l),
(432,406,l),
(514,524,l),
(460,620,l),
(384,648,l),
(290,612,l),
(181,450,l),
(106,378,l),
(42,277,l),
(-53,259,l),
(42,406,l)
);
}
);
width = 600;
},
{
layerId = m003;
shapes = (
{
closed = 1;
nodes = (
(154,679,l),
(231,696,l),
(296,686,l),
(454,700,l),
(565,598,l),
(565,454,l),
(411,333,l),
(380,288,l),
(309,288,l),
(269,258,l),
(235,221,l),
(235,167,l),
(283,124,l),
(344,78,l),
(389,13,l),
(327,-57,l),
(302,3,l),
(269,64,l),
(185,116,l),
(172,201,l),
(184,288,l),
(268,337,l),
(309,356,l),
(369,398,l),
(432,406,l),
(514,524,l),
(460,620,l),
(384,648,l),
(290,612,l),
(210,586,l),
(138,562,l),
(74,461,l),
(-21,443,l),
(74,590,l)
);
}
);
width = 600;
},
{
layerId = m004;
shapes = (
{
closed = 1;
nodes = (
(154,679,l),
(231,696,l),
(296,686,l),
(454,700,l),
(565,598,l),
(565,454,l),
(481,216,l),
(450,171,l),
(450,116,l),
(386,90,l),
(312,31,l),
(206,0,l),
(127,44,l),
(61,143,l),
(18,218,l),
(-59,270,l),
(-3,303,l),
(80,224,l),
(149,121,l),
(232,90,l),
(296,118,l),
(373,171,l),
(420,218,l),
(487,365,l),
(508,449,l),
(514,524,l),
(460,620,l),
(384,648,l),
(290,612,l),
(210,586,l),
(138,562,l),
(74,461,l),
(-21,443,l),
(74,590,l)
);
}
);
width = 600;
},
{
layerId = m005;
shapes = (
{
closed = 1;
nodes = (
(170,411,l),
(170,500,l),
(170,632,l),
(333,700,l),
(565,675,l),
(565,454,l),
(481,216,l),
(450,171,l),
(450,116,l),
(386,90,l),
(312,31,l),
(206,0,l),
(127,44,l),
(61,143,l),
(18,218,l),
(47,290,l),
(103,323,l),
(80,224,l),
(149,121,l),
(232,90,l),
(296,118,l),
(373,171,l),
(420,218,l),
(487,365,l),
(508,449,l),
(514,524,l),
(507,608,l),
(384,600,l),
(263,574,l),
(263,444,l),
(300,379,l),
(432,359,l),
(401,264,l),
(280,299,l)
);
}
);
width = 600;
},
{
layerId = m006;
shapes = (
{
closed = 1;
nodes = (
(52,440,l),
(52,529,l),
(52,661,l),
(215,729,l),
(565,675,l),
(565,454,l),
(565,200,l),
(534,155,l),
(534,100,l),
(470,74,l),
(396,15,l),
(206,0,l),
(127,44,l),
(61,143,l),
(18,218,l),
(47,290,l),
(103,323,l),
(80,224,l),
(149,121,l),
(316,74,l),
(380,102,l),
(457,155,l),
(504,202,l),
(487,365,l),
(508,449,l),
(514,524,l),
(507,608,l),
(266,629,l),
(145,603,l),
(145,473,l),
(182,408,l),
(314,388,l),
(386,319,l),
(244,299,l)
);
}
);
width = 600;
},
{
layerId = m007;
shapes = (
{
closed = 1;
nodes = (
(52,440,l),
(52,529,l),
(52,661,l),
(215,729,l),
(474,681,l),
(565,524,l),
(565,337,l),
(565,216,l),
(565,161,l),
(519,74,l),
(445,15,l),
(206,0,l),
(127,44,l),
(61,143,l),
(18,218,l),
(47,290,l),
(103,323,l),
(80,224,l),
(252,92,l),
(365,74,l),
(429,102,l),
(478,191,l),
(497,266,l),
(457,365,l),
(508,449,l),
(448,524,l),
(416,614,l),
(266,629,l),
(145,603,l),
(145,473,l),
(182,408,l),
(432,388,l),
(504,319,l),
(244,299,l)
);
}
);
width = 600;
},
{
layerId = m008;
shapes = (
{
closed = 1;
nodes = (
(70,365,l),
(9,449,l),
(42,570,l),
(215,729,l),
(474,681,l),
(565,524,l),
(565,337,l),
(565,216,l),
(565,161,l),
(519,74,l),
(445,15,l),
(215,-4,l),
(92,31,l),
(21,69,l),
(21,144,l),
(50,216,l),
(124,201,l),
(106,119,l),
(190,92,l),
(348,67,l),
(429,102,l),
(478,191,l),
(497,266,l),
(457,365,l),
(486,449,l),
(448,524,l),
(416,614,l),
(266,629,l),
(148,574,l),
(100,459,l),
(223,403,l),
(448,473,l),
(519,376,l),
(252,334,l)
);
}
);
width = 600;
}
);
unicode = 57;
},
